<svg xmlns="http://www.w3.org/2000/svg" xmlns:xlink="http://www.w3.org/1999/xlink" width="23" height="23" viewBox="0 0 23 23">
  <defs>
    <clipPath id="clip-path">
      <rect id="Rectangle_12" data-name="Rectangle 12" width="23" height="23" transform="translate(0 0.051)" fill="none"/>
    </clipPath>
  </defs>
  <g id="Group_20" data-name="Group 20" transform="translate(0 -0.051)">
    <g id="Group_19" data-name="Group 19" clip-path="url(#clip-path)">
      <path id="Path_55" data-name="Path 55" d="M143.922,232.711a.708.708,0,0,0-.722-.695h-5.9a.7.7,0,1,0,0,1.389h5.9a.709.709,0,0,0,.722-.695" transform="translate(-129.571 -220.555)" fill="#fff"/>
      <path id="Path_56" data-name="Path 56" d="M137.206,297.25a.7.7,0,1,0,0,1.389h3.864a.7.7,0,1,0,0-1.389Z" transform="translate(-129.481 -282.567)" fill="#fff"/>
      <path id="Path_57" data-name="Path 57" d="M14.093,20.29H5.082a.8.8,0,0,1-.818-.787V8.772h2.59A2.217,2.217,0,0,0,9.11,6.6v-2.5h9.224a.8.8,0,0,1,.818.787V9.971a.722.722,0,0,0,1.443,0V4.893a2.223,2.223,0,0,0-2.261-2.177h-.564V2.173A2.219,2.219,0,0,0,15.512,0H2.257A2.219,2.219,0,0,0,0,2.173V16.789a2.219,2.219,0,0,0,2.257,2.173h.564V19.5a2.223,2.223,0,0,0,2.261,2.176h9.011a.7.7,0,1,0,0-1.389M7.667,6.6a.8.8,0,0,1-.812.782H4.265V7a.414.414,0,0,1,.118-.282L6.964,4.226a.427.427,0,0,1,.3-.12h.4ZM2.257,17.572a.8.8,0,0,1-.814-.783V2.173a.811.811,0,0,1,.814-.784H15.513a.8.8,0,0,1,.814.784v.543H7.263a1.89,1.89,0,0,0-1.32.529l-2.591,2.5A1.766,1.766,0,0,0,2.821,7V17.572Z" fill="#fff"/>
      <path id="Path_58" data-name="Path 58" d="M287.137,244.32a4.36,4.36,0,0,0-8.715,0,4.153,4.153,0,0,0,1.894,3.457v2.792a.685.685,0,0,0,.265.538.758.758,0,0,0,.6.143l1.6-.314,1.6.314a.77.77,0,0,0,.145.015.741.741,0,0,0,.456-.157.686.686,0,0,0,.265-.538v-2.793a4.153,4.153,0,0,0,1.894-3.457m-3.337,5.4-.875-.173a.792.792,0,0,0-.289,0l-.875.173v-1.324a4.362,4.362,0,0,0,2.039,0Zm-1.021-2.593a2.807,2.807,0,1,1,2.913-2.8,2.864,2.864,0,0,1-2.913,2.8" transform="translate(-264.137 -228.265)" fill="#fff"/>
    </g>
  </g>
</svg>
