<svg xmlns="http://www.w3.org/2000/svg" xmlns:xlink="http://www.w3.org/1999/xlink" width="78" height="78" viewBox="0 0 78 78">
  <defs>
    <clipPath id="clip-path">
      <rect id="Rectangle_5" data-name="Rectangle 5" width="43.341" height="36.047" fill="#52abdc"/>
    </clipPath>
  </defs>
  <g id="Group_30" data-name="Group 30" transform="translate(0.082 0.471)">
    <g id="Ellipse_3" data-name="Ellipse 3" transform="translate(-0.082 -0.471)" fill="#e4f8ff" stroke="#52abdc" stroke-linecap="round" stroke-linejoin="round" stroke-width="2" stroke-dasharray="200 100">
      <circle cx="39" cy="39" r="39" stroke="none"/>
      <circle cx="39" cy="39" r="38" fill="none"/>
    </g>
    <g id="Group_29" data-name="Group 29" transform="translate(16.918 20.529)">
      <g id="Group_5" data-name="Group 5" clip-path="url(#clip-path)">
        <path id="Path_8" data-name="Path 8" d="M30.794,104.827a3.693,3.693,0,1,1,0-7.383,3.692,3.692,0,1,1,0,7.383m0-5.112a1.423,1.423,0,1,0,0,2.842,1.421,1.421,0,1,0,0-2.842" transform="translate(-24.461 -88.224)" fill="#52abdc"/>
        <path id="Path_9" data-name="Path 9" d="M11.445,185.879H1.135A1.135,1.135,0,0,1,0,184.744a6.291,6.291,0,0,1,12.581,0,1.135,1.135,0,0,1-1.135,1.135m-9-2.271h7.7a3.984,3.984,0,0,0-3.812-2.842,4.119,4.119,0,0,0-3.886,2.842" transform="translate(0 -161.608)" fill="#52abdc"/>
        <path id="Path_10" data-name="Path 10" d="M355.819,104.827a3.692,3.692,0,0,1,0-7.383,3.693,3.693,0,1,1,0,7.383m0-5.112a1.421,1.421,0,0,0,0,2.842,1.423,1.423,0,1,0,0-2.842" transform="translate(-318.811 -88.224)" fill="#52abdc"/>
        <path id="Path_11" data-name="Path 11" d="M336.555,185.879h-10.31a1.135,1.135,0,0,1-1.135-1.135,6.291,6.291,0,0,1,12.581,0,1.135,1.135,0,0,1-1.135,1.135m-9.01-2.271h7.7a4.119,4.119,0,0,0-3.886-2.842,3.984,3.984,0,0,0-3.812,2.842" transform="translate(-294.349 -161.608)" fill="#52abdc"/>
        <path id="Path_12" data-name="Path 12" d="M181.483,107.383a4.97,4.97,0,1,1,4.97-4.97,4.975,4.975,0,0,1-4.97,4.97m0-7.669a2.7,2.7,0,1,0,2.7,2.7,2.7,2.7,0,0,0-2.7-2.7" transform="translate(-159.812 -88.224)" fill="#52abdc"/>
        <path id="Path_13" data-name="Path 13" d="M163.412,215.453H150.63a1.135,1.135,0,0,1-1.135-1.135V213.04a7.526,7.526,0,0,1,15.052,0v1.278a1.135,1.135,0,0,1-1.135,1.135m-11.646-2.271h10.51v-.143a5.255,5.255,0,0,0-10.51,0Z" transform="translate(-135.351 -186.07)" fill="#52abdc"/>
        <path id="Path_14" data-name="Path 14" d="M294.547,1.5h-2.682a.894.894,0,1,0,0,1.788h2.682a2.685,2.685,0,0,1,2.682,2.682V8.651a.894.894,0,0,0,1.788,0V5.969A4.475,4.475,0,0,0,294.547,1.5" transform="translate(-263.441 -1.358)" fill="#52abdc"/>
        <path id="Path_15" data-name="Path 15" d="M296.765,8.329a1.037,1.037,0,0,1-1.036-1.036V4.611a2.543,2.543,0,0,0-2.54-2.54h-2.682a1.036,1.036,0,0,1,0-2.072h2.682A4.617,4.617,0,0,1,297.8,4.611V7.293a1.037,1.037,0,0,1-1.036,1.036M290.508.284a.752.752,0,0,0,0,1.5h2.682a2.827,2.827,0,0,1,2.823,2.824V7.293a.752.752,0,0,0,1.5,0V4.611A4.332,4.332,0,0,0,293.19.284Z" transform="translate(-262.084)" fill="#52abdc"/>
        <path id="Path_16" data-name="Path 16" d="M299.017,298.039v-2.682a.894.894,0,0,0-1.788,0v2.682a2.685,2.685,0,0,1-2.682,2.682h-2.682a.894.894,0,0,0,0,1.788h2.682a4.475,4.475,0,0,0,4.469-4.469" transform="translate(-263.442 -266.603)" fill="#52abdc"/>
        <path id="Path_17" data-name="Path 17" d="M293.19,301.293h-2.682a1.036,1.036,0,0,1,0-2.072h2.682a2.543,2.543,0,0,0,2.54-2.54V294a1.036,1.036,0,0,1,2.072,0v2.682a4.617,4.617,0,0,1-4.611,4.611m-2.682-1.788a.752.752,0,0,0,0,1.5h2.682a4.332,4.332,0,0,0,4.327-4.328V294a.752.752,0,0,0-1.5,0v2.682a2.827,2.827,0,0,1-2.823,2.823Z" transform="translate(-262.084 -265.246)" fill="#52abdc"/>
        <path id="Path_18" data-name="Path 18" d="M93.952,5.97V8.652a.894.894,0,1,0,1.788,0V5.97a2.685,2.685,0,0,1,2.682-2.682H101.1a.894.894,0,0,0,0-1.788H98.421A4.475,4.475,0,0,0,93.952,5.97" transform="translate(-85.063 -1.359)" fill="#52abdc"/>
        <path id="Path_19" data-name="Path 19" d="M93.488,8.329a1.037,1.037,0,0,1-1.036-1.036V4.611A4.617,4.617,0,0,1,97.063,0h2.682a1.036,1.036,0,1,1,0,2.072H97.063a2.543,2.543,0,0,0-2.54,2.54V7.293a1.037,1.037,0,0,1-1.036,1.036M97.063.284a4.332,4.332,0,0,0-4.327,4.328V7.293a.752.752,0,0,0,1.5,0V4.611a2.827,2.827,0,0,1,2.824-2.824h2.682a.752.752,0,0,0,0-1.5Z" transform="translate(-83.705 0)" fill="#52abdc"/>
        <path id="Path_20" data-name="Path 20" d="M98.421,302.509H101.1a.894.894,0,1,0,0-1.788H98.421a2.685,2.685,0,0,1-2.682-2.682v-2.682a.894.894,0,0,0-1.788,0v2.682a4.475,4.475,0,0,0,4.469,4.469" transform="translate(-85.063 -266.604)" fill="#52abdc"/>
        <path id="Path_21" data-name="Path 21" d="M99.745,301.293H97.063a4.617,4.617,0,0,1-4.611-4.611V294a1.036,1.036,0,0,1,2.072,0v2.682a2.543,2.543,0,0,0,2.54,2.54h2.682a1.036,1.036,0,1,1,0,2.072m-6.257-8.045a.753.753,0,0,0-.752.752v2.682a4.332,4.332,0,0,0,4.327,4.327h2.682a.752.752,0,1,0,0-1.5H97.063a2.827,2.827,0,0,1-2.824-2.823V294a.753.753,0,0,0-.752-.752" transform="translate(-83.705 -265.246)" fill="#52abdc"/>
      </g>
    </g>
  </g>
</svg>
