<svg xmlns="http://www.w3.org/2000/svg" xmlns:xlink="http://www.w3.org/1999/xlink" width="26" height="23" viewBox="0 0 26 23">
  <defs>
    <clipPath id="clip-path">
      <rect id="Rectangle_10" data-name="Rectangle 10" width="26" height="23" transform="translate(0 0.216)" fill="none"/>
    </clipPath>
  </defs>
  <g id="Group_15" data-name="Group 15" transform="translate(0 -0.216)">
    <g id="Group_14" data-name="Group 14" clip-path="url(#clip-path)">
      <path id="Path_47" data-name="Path 47" d="M110.905,23H97.787a4.073,4.073,0,0,1-4.038-4.1V4.1A4.073,4.073,0,0,1,97.787,0h13.119a4.073,4.073,0,0,1,4.038,4.1V18.9a4.073,4.073,0,0,1-4.038,4.1M97.787,1.372A2.71,2.71,0,0,0,95.1,4.1V18.9a2.71,2.71,0,0,0,2.686,2.727h13.119a2.71,2.71,0,0,0,2.686-2.727V4.1a2.71,2.71,0,0,0-2.686-2.727Z" transform="translate(-88.943)" fill="#fff"/>
      <path id="Path_48" data-name="Path 48" d="M8.833,152.97H.55a.559.559,0,0,1,0-1.118H8.833a.559.559,0,0,1,0,1.118" transform="translate(0.114 -144.138)" fill="#fff"/>
      <path id="Path_49" data-name="Path 49" d="M8.833,216.5H.55a.559.559,0,0,1,0-1.118H8.833a.559.559,0,0,1,0,1.118" transform="translate(0.114 -204.446)" fill="#fff"/>
      <path id="Path_50" data-name="Path 50" d="M70.353,280.04H65.312a.559.559,0,0,1,0-1.118h5.041a.559.559,0,0,1,0,1.118" transform="translate(-61.406 -264.753)" fill="#fff"/>
      <path id="Path_51" data-name="Path 51" d="M243.583,21.481a.594.594,0,0,1-.331-.1l-1.57-1.053a1.07,1.07,0,0,0-1.116-.031l-1.677.986a.593.593,0,0,1-.629-.016.613.613,0,0,1-.27-.577l.548-5.145a.6.6,0,0,1,.6-.544h5.008a.6.6,0,0,1,.447.2.616.616,0,0,1,.15.473l-.561,5.262a.609.609,0,0,1-.342.486.593.593,0,0,1-.255.058M241.1,18.933a2.234,2.234,0,0,1,1.245.376l.748.5.383-3.592h-3.8l-.362,3.4.652-.383a2.243,2.243,0,0,1,1.135-.307" transform="translate(-225.963 -14.238)" fill="#fff"/>
      <path id="Path_52" data-name="Path 52" d="M399.742,366.778h-2.223a.559.559,0,0,1,0-1.118h2.223a.559.559,0,0,1,0,1.118" transform="translate(-376.987 -347.085)" fill="#fff"/>
    </g>
  </g>
</svg>
