<svg xmlns="http://www.w3.org/2000/svg" xmlns:xlink="http://www.w3.org/1999/xlink" width="78" height="78" viewBox="0 0 78 78">
  <defs>
    <clipPath id="clip-path">
      <rect id="Rectangle_6" data-name="Rectangle 6" width="39.395" height="38.493" fill="#52abdc"/>
    </clipPath>
  </defs>
  <g id="Group_30" data-name="Group 30" transform="translate(0.171 0.334)">
    <g id="Ellipse_3" data-name="Ellipse 3" transform="translate(-0.171 -0.334)" fill="#e5f8ff" stroke="#52abdc" stroke-linecap="round" stroke-linejoin="round" stroke-width="2" stroke-dasharray="200 100">
      <circle cx="39" cy="39" r="39" stroke="none"/>
      <circle cx="39" cy="39" r="38" fill="none"/>
    </g>
    <g id="Group_58" data-name="Group 58" transform="translate(19.132 19.419)">
      <g id="Group_7" data-name="Group 7" clip-path="url(#clip-path)">
        <path id="Path_22" data-name="Path 22" d="M33.568,65.531H31.345a1.229,1.229,0,0,1,0-2.459h2.222A3.372,3.372,0,0,0,36.936,59.7v-9.2a3.372,3.372,0,0,0-3.368-3.369H5.827a3.372,3.372,0,0,0-3.369,3.369v9.2a3.372,3.372,0,0,0,3.369,3.368H8.049a1.229,1.229,0,0,1,0,2.459H5.827A5.834,5.834,0,0,1,0,59.7v-9.2a5.834,5.834,0,0,1,5.827-5.827h27.74a5.834,5.834,0,0,1,5.827,5.827v9.2a5.834,5.834,0,0,1-5.827,5.827" transform="translate(0 -40.104)" fill="#52abdc"/>
        <path id="Path_23" data-name="Path 23" d="M76.824,166.824H49.85a1.229,1.229,0,1,1,0-2.459H76.824a1.229,1.229,0,0,1,0,2.459" transform="translate(-43.64 -147.527)" fill="#52abdc"/>
        <path id="Path_24" data-name="Path 24" d="M53.529,95.014H49.85a1.229,1.229,0,1,1,0-2.459h3.678a1.229,1.229,0,0,1,0,2.459" transform="translate(-43.64 -83.073)" fill="#52abdc"/>
        <path id="Path_25" data-name="Path 25" d="M134.877,196.691a1.229,1.229,0,0,1-.012-2.459l13.457-.139a1.326,1.326,0,0,0,1.026-.626,3.5,3.5,0,0,0,.56-2.057s0-.008,0-.012l-.006-13.87a1.229,1.229,0,0,1,1.229-1.23h0a1.229,1.229,0,0,1,1.229,1.229l.006,13.865a5.959,5.959,0,0,1-1.017,3.5,3.7,3.7,0,0,1-3,1.656l-13.457.139h-.013" transform="translate(-119.957 -158.237)" fill="#52abdc"/>
        <path id="Path_26" data-name="Path 26" d="M134.137,196.295a1.127,1.127,0,0,1-1.127-1.115l-.133-12.862a1.127,1.127,0,0,1,1.115-1.138H134a1.127,1.127,0,0,1,1.127,1.115l.133,12.862a1.127,1.127,0,0,1-1.115,1.139h-.012" transform="translate(-119.265 -162.618)" fill="#52abdc"/>
        <path id="Path_27" data-name="Path 27" d="M70.484,200.2a4.741,4.741,0,0,1-2.809-.862,3.234,3.234,0,0,1-1.37-2.563l-.159-15.368a1.229,1.229,0,1,1,2.458-.025l.159,15.368a.806.806,0,0,0,.371.61,2.305,2.305,0,0,0,1.381.382l3.762-.039a1.229,1.229,0,0,1,.025,2.459l-3.762.039h-.057" transform="translate(-59.37 -161.708)" fill="#52abdc"/>
        <path id="Path_28" data-name="Path 28" d="M65.213,4.444a1.23,1.23,0,0,1-1.222-1.106A2.9,2.9,0,0,1,64.6.969,3.666,3.666,0,0,1,67.553.151c.184,0,.375.005.56,0h.01L85.239.118h0a1.229,1.229,0,0,1,0,2.459l-17.111.036c-.213,0-.417,0-.614,0a6.32,6.32,0,0,0-1.086.041,1.9,1.9,0,0,0,0,.441,1.229,1.229,0,0,1-1.1,1.347c-.042,0-.084.006-.125.006" transform="translate(-57.412 -0.106)" fill="#52abdc"/>
        <path id="Path_29" data-name="Path 29" d="M117.432,4.2a1.23,1.23,0,0,1-1.224-1.362,1.777,1.777,0,0,0,.011-.3,7.085,7.085,0,0,0-1.1-.039c-.2,0-.4,0-.619,0L97.343,2.46a1.229,1.229,0,0,1,0-2.459h0l17.164.047c.2,0,.39,0,.573,0a3.724,3.724,0,0,1,2.989.822,2.755,2.755,0,0,1,.576,2.24,1.23,1.23,0,0,1-1.221,1.1" transform="translate(-86.27 -0.001)" fill="#52abdc"/>
        <path id="Path_30" data-name="Path 30" d="M182.255,262.673a2.261,2.261,0,1,1-4.52.047,2.26,2.26,0,1,1,4.52-.047m-3.13.032a.871.871,0,1,0,1.74-.018.87.87,0,1,0-1.74.018" transform="translate(-159.527 -233.756)" fill="#52abdc"/>
        <path id="Path_31" data-name="Path 31" d="M228.055,245.214l.065,6.313a.7.7,0,0,1-.688.7,3.852,3.852,0,0,1-.08-7.7.7.7,0,0,1,.7.688m-1.333,5.524-.049-4.714a2.44,2.44,0,0,0-1.716,2.352,2.522,2.522,0,0,0,1.764,2.362" transform="translate(-200.664 -219.475)" fill="#52abdc"/>
      </g>
    </g>
  </g>
</svg>
