<svg xmlns="http://www.w3.org/2000/svg" xmlns:xlink="http://www.w3.org/1999/xlink" width="23" height="23" viewBox="0 0 23 23">
  <defs>
    <clipPath id="clip-path">
      <rect id="Rectangle_9" data-name="Rectangle 9" width="23" height="23" transform="translate(0 0.051)" fill="none"/>
    </clipPath>
  </defs>
  <g id="Group_13" data-name="Group 13" transform="translate(0 -0.051)">
    <g id="Group_13-2" data-name="Group 13" clip-path="url(#clip-path)">
      <path id="Path_38" data-name="Path 38" d="M18.618,23H4.382A4.252,4.252,0,0,1,0,18.9V4.1A4.252,4.252,0,0,1,4.382,0H18.618A4.252,4.252,0,0,1,23,4.1V18.9A4.252,4.252,0,0,1,18.618,23M4.382,1.372A2.829,2.829,0,0,0,1.466,4.1V18.9a2.829,2.829,0,0,0,2.915,2.727H18.618A2.829,2.829,0,0,0,21.534,18.9V4.1a2.829,2.829,0,0,0-2.915-2.727Z" fill="#fff"/>
      <path id="Path_39" data-name="Path 39" d="M90.863,96.154h-.008a2.267,2.267,0,1,1,0-4.518h.017a2.267,2.267,0,1,1,0,4.518h-.008m0-3.616a1.361,1.361,0,1,0,1.466,1.357,1.354,1.354,0,0,0-1.466-1.357" transform="translate(-83.602 -86.981)" fill="#fff"/>
      <path id="Path_40" data-name="Path 40" d="M70.227,191.939H63.59a.481.481,0,0,1-.495-.411,3.49,3.49,0,0,1,1.744-3.551,4.376,4.376,0,0,1,4.14,0,3.488,3.488,0,0,1,1.743,3.55.481.481,0,0,1-.495.411m-6.161-.9H69.75a2.523,2.523,0,0,0-1.294-2.292,3.273,3.273,0,0,0-3.1,0,2.523,2.523,0,0,0-1.294,2.292" transform="translate(-59.647 -177.934)" fill="#fff"/>
      <path id="Path_41" data-name="Path 41" d="M246.205,94.927h-5.962a.56.56,0,1,1,0-1.118h5.962a.56.56,0,1,1,0,1.118" transform="translate(-226.631 -89.044)" fill="#fff"/>
      <path id="Path_42" data-name="Path 42" d="M246.205,146.488h-5.962a.56.56,0,1,1,0-1.118h5.962a.56.56,0,1,1,0,1.118" transform="translate(-226.631 -137.985)" fill="#fff"/>
      <path id="Path_43" data-name="Path 43" d="M286.829,198.049H283.2a.56.56,0,1,1,0-1.118h3.629a.56.56,0,1,1,0,1.118" transform="translate(-267.255 -186.927)" fill="#fff"/>
      <path id="Path_44" data-name="Path 44" d="M68.819,299.7H52.669a.56.56,0,1,1,0-1.118H68.819a.56.56,0,1,1,0,1.118" transform="translate(-49.244 -283.411)" fill="#fff"/>
      <path id="Path_45" data-name="Path 45" d="M68.819,351.257H52.669a.56.56,0,1,1,0-1.118H68.819a.56.56,0,1,1,0,1.118" transform="translate(-49.244 -332.353)" fill="#fff"/>
      <path id="Path_46" data-name="Path 46" d="M264.471,247.084h-4.913a.56.56,0,1,1,0-1.118h4.913a.56.56,0,1,1,0,1.118" transform="translate(-244.897 -233.471)" fill="#fff"/>
    </g>
  </g>
</svg>
