<svg xmlns="http://www.w3.org/2000/svg" xmlns:xlink="http://www.w3.org/1999/xlink" width="78" height="78" viewBox="0 0 78 78">
  <defs>
    <clipPath id="clip-path">
      <rect id="Rectangle_9" data-name="Rectangle 9" width="35.984" height="38.555" fill="#52abdc"/>
    </clipPath>
  </defs>
  <g id="Group_30" data-name="Group 30" transform="translate(-0.462 0.471)">
    <g id="Path_106" data-name="Path 106" transform="translate(0.462 -0.471)" fill="#e4f8ff" stroke-linecap="round" stroke-dasharray="200 100">
      <path d="M39,0A39,39,0,1,1,0,39,39,39,0,0,1,39,0Z" stroke="none"/>
      <path d="M 39 0 C 60.53909301757812 0 78 17.46089553833008 78 39 C 78 39 78 39 78 39 C 78 60.53909301757812 60.53909301757812 78 39 78 C 39 78 39 78 39 78 C 38.82646560668945 78 38.6531982421875 77.99886322021484 38.48020172119141 77.99660491943359 C 17.1806755065918 77.7183837890625 0 60.36556243896484 0 39 C 0 39 0 39 0 39 C 0 39 0 39 0 39 C 0 38.99453353881836 0 38.98943710327148 0 38.98396682739258 C 7.62939453125e-06 38.98133850097656 7.62939453125e-06 38.97971725463867 7.62939453125e-06 38.97708892822266 C 7.62939453125e-06 38.97401428222656 7.62939453125e-06 38.97101593017578 1.52587890625e-05 38.96794128417969 C 1.52587890625e-05 38.96531295776367 1.52587890625e-05 38.96292495727539 2.288818359375e-05 38.96029663085938 C 2.288818359375e-05 38.95756530761719 2.288818359375e-05 38.95453643798828 3.0517578125e-05 38.95180511474609 C 3.0517578125e-05 38.94917678833008 3.814697265625e-05 38.94709396362305 3.814697265625e-05 38.94446563720703 C 4.57763671875e-05 38.94139099121094 4.57763671875e-05 38.93874359130859 5.340576171875e-05 38.9356689453125 C 5.340576171875e-05 38.93304061889648 6.103515625e-05 38.93095016479492 6.866455078125e-05 38.92832183837891 C 6.866455078125e-05 38.92524719238281 7.62939453125e-05 38.92261123657227 8.392333984375e-05 38.91953659057617 C 8.392333984375e-05 38.91690826416016 9.1552734375e-05 38.91479873657227 9.918212890625e-05 38.91217041015625 C 0.0001068115234375 38.90943908691406 0.0001068115234375 38.90625381469727 0.00011444091796875 38.90352249145508 C 0.0001220703125 38.90089416503906 0.00012969970703125 38.89844512939453 0.0001373291015625 38.89581680297852 C 0.00014495849609375 38.89308547973633 0.000152587890625 38.89010620117188 0.00016021728515625 38.88737487792969 C 0.00016021728515625 38.88605880737305 0.00017547607421875 38.88130569458008 0.00018310546875 38.8799934387207 C 0.00019073486328125 38.87691879272461 0.0001983642578125 38.87432479858398 0.00020599365234375 38.87125396728516 C 0.000213623046875 38.86862564086914 0.00022125244140625 38.8663215637207 0.00023651123046875 38.86369705200195 C 0.000244140625 38.8609619140625 0.00025177001953125 38.85785675048828 0.00026702880859375 38.85512542724609 C 0.000274658203125 38.85250091552734 0.00028228759765625 38.8504638671875 0.0002899169921875 38.84783554077148 C 0.00030517578125 38.84476470947266 0.00031280517578125 38.8420524597168 0.00032806396484375 38.83898162841797 C 0.000335693359375 38.83635330200195 0.00034332275390625 38.83417892456055 0.00035858154296875 38.8315544128418 C 0.0003662109375 38.8284797668457 0.0003814697265625 38.82604217529297 0.000396728515625 38.82297134399414 C 0.00040435791015625 38.82034301757812 0.0004119873046875 38.81813049316406 0.00042724609375 38.81550216674805 C 0.0004425048828125 38.81277084350586 0.000457763671875 38.80964660644531 0.00046539306640625 38.80691528320312 C 0.00048065185546875 38.80428695678711 0.00049591064453125 38.8017578125 0.0005035400390625 38.79912948608398 C 0.000518798828125 38.7963981628418 0.0005340576171875 38.79371643066406 0.00054931640625 38.79098510742188 C 0.0005645751953125 38.78835678100586 0.000579833984375 38.78573226928711 0.00058746337890625 38.78310775756836 C 0.00060272216796875 38.78037643432617 0.0006256103515625 38.77749633789062 0.000640869140625 38.77476501464844 C 0.00064849853515625 38.77214050292969 0.00066375732421875 38.76980590820312 0.00067901611328125 38.76717758178711 C 0.000701904296875 38.76410675048828 0.0007171630859375 38.76137542724609 0.000732421875 38.75830078125 C 0.0007476806640625 38.75567626953125 0.000762939453125 38.75394439697266 0.0007781982421875 38.75131988525391 C 0.00079345703125 38.74858856201172 0.00081634521484375 38.74516296386719 0.00083160400390625 38.742431640625 C 0.00084686279296875 38.73980712890625 0.00086212158203125 38.73746871948242 0.000885009765625 38.73484420776367 C 0.0009002685546875 38.73211288452148 0.00092315673828125 38.72913360595703 0.00093841552734375 38.72640609741211 C 0.0009613037109375 38.72378158569336 0.0009765625 38.72157669067383 0.0009918212890625 38.71895217895508 C 0.00101470947265625 38.71588134765625 0.00102996826171875 38.71341323852539 0.0010528564453125 38.71034240722656 C 0.00106048583984375 38.70903015136719 0.0010986328125 38.70403289794922 0.00110626220703125 38.70272064208984 C 0.001129150390625 38.69964981079102 0.00115203857421875 38.69712829589844 0.0011749267578125 38.69405746459961 C 0.00118255615234375 38.69274520874023 0.001220703125 38.68816757202148 0.00122833251953125 38.68685531616211 C 0.00125885009765625 38.68378829956055 0.00128173828125 38.6808967590332 0.00130462646484375 38.67782592773438 C 0.0013275146484375 38.67520141601562 0.0013427734375 38.67327117919922 0.00136566162109375 38.67064666748047 C 0.0013885498046875 38.66757965087891 0.00141143798828125 38.66438293457031 0.00144195556640625 38.66131210327148 C 0.00146484375 38.65868759155273 0.00147247314453125 38.65740585327148 0.001495361328125 38.65478134155273 C 0.00152587890625 38.65137100219727 0.001556396484375 38.64790725708008 0.0015869140625 38.64449691772461 C 0.00160980224609375 38.64187240600586 0.001617431640625 38.64130783081055 0.00164031982421875 38.63868713378906 C 0.001678466796875 38.63459396362305 0.00171661376953125 38.63042449951172 0.0017547607421875 38.6263313293457 C 0.00176239013671875 38.62501907348633 0.00177764892578125 38.62412643432617 0.0017852783203125 38.6228141784668 C 0.00182342529296875 38.61872100830078 0.001861572265625 38.61520004272461 0.00189971923828125 38.61110687255859 C 0.00191497802734375 38.60979461669922 0.00193023681640625 38.60768127441406 0.00194549560546875 38.60636901855469 C 0.00205230712890625 38.595458984375 0.00215911865234375 38.58520889282227 0.0022735595703125 38.57429885864258 C 0.002288818359375 38.57299041748047 0.0023040771484375 38.57149124145508 0.0023193359375 38.5701789855957 C 0.0023651123046875 38.56608963012695 0.002410888671875 38.56212615966797 0.0024566650390625 38.55803680419922 C 0.00246429443359375 38.55672454833984 0.00249481201171875 38.55462265014648 0.00250244140625 38.55331420898438 C 0.0025482177734375 38.54956436157227 0.00258636474609375 38.54598617553711 0.00263214111328125 38.542236328125 C 0.00266265869140625 38.53961563110352 0.00267791748046875 38.53822708129883 0.00270843505859375 38.53560638427734 C 0.00274658203125 38.53253936767578 0.00278472900390625 38.52902603149414 0.0028228759765625 38.52595901489258 C 0.0028533935546875 38.52333831787109 0.00286102294921875 38.52264404296875 0.00289154052734375 38.52001953125 C 0.00293731689453125 38.5166130065918 0.0029754638671875 38.5133056640625 0.00301361083984375 38.5098991394043 C 0.0030517578125 38.50727844238281 0.00305938720703125 38.50635528564453 0.00308990478515625 38.50373458862305 C 0.0031280517578125 38.50066757202148 0.00318145751953125 38.49684143066406 0.0032196044921875 38.4937744140625 C 0.00323486328125 38.49246215820312 0.00328826904296875 38.48808288574219 0.0033111572265625 38.48677062988281 C 0.00334930419921875 38.48370361328125 0.00337982177734375 38.48130798339844 0.00341796875 38.47824478149414 C 0.00347137451171875 38.47431182861328 0.00347137451171875 38.47406768798828 0.0035247802734375 38.47013473510742 C 0.00356292724609375 38.46741104125977 0.00360107421875 38.46470260620117 0.00363922119140625 38.46197891235352 C 0.00366973876953125 38.45935821533203 0.00370025634765625 38.4570426940918 0.0037384033203125 38.45442199707031 C 0.00377655029296875 38.45169448852539 0.00382232666015625 38.44860076904297 0.0038604736328125 38.44587707519531 C 0.0038909912109375 38.44325637817383 0.0039215087890625 38.44115829467773 0.00395965576171875 38.43853759765625 C 0.003997802734375 38.43581008911133 0.0040435791015625 38.43239593505859 0.00408935546875 38.42967224121094 C 0.004119873046875 38.42705154418945 0.004150390625 38.42509078979492 0.00418853759765625 38.42247009277344 C 0.00423431396484375 38.41940307617188 0.0042724609375 38.41678619384766 0.0043182373046875 38.41371917724609 C 0.00435638427734375 38.41109848022461 0.00438690185546875 38.40907287597656 0.004425048828125 38.40645217895508 C 0.0044708251953125 38.40338897705078 0.0045166015625 38.40041732788086 0.0045623779296875 38.3973503112793 C 0.00460052490234375 38.39473342895508 0.0046234130859375 38.39321136474609 0.004669189453125 38.39059448242188 C 0.0047149658203125 38.38718795776367 0.00475311279296875 38.38471984863281 0.0048065185546875 38.38131332397461 C 0.004852294921875 38.37869262695312 0.00487518310546875 38.37714004516602 0.004913330078125 38.37451934814453 C 0.00496673583984375 38.37145614624023 0.00501251220703125 38.36812973022461 0.00506591796875 38.36506652832031 C 0.00510406494140625 38.36244583129883 0.005126953125 38.36103439331055 0.0051727294921875 38.35841369628906 C 0.005218505859375 38.35535049438477 0.0052642822265625 38.35249710083008 0.00531768798828125 38.34943389892578 C 0.00536346435546875 38.3468132019043 0.00539398193359375 38.34468078613281 0.00543975830078125 38.34206390380859 C 0.00548553466796875 38.3390007019043 0.00553131103515625 38.33639144897461 0.005584716796875 38.33332824707031 C 0.0056304931640625 38.33071136474609 0.0056610107421875 38.32865524291992 0.005706787109375 38.32603454589844 C 0.0057525634765625 38.32331085205078 0.00580596923828125 38.32011413574219 0.00585174560546875 38.31739044189453 C 0.00589752197265625 38.31477355957031 0.0059356689453125 38.31262588500977 0.0059814453125 38.31000900268555 C 0.00603485107421875 38.30694580078125 0.00608062744140625 38.30412292480469 0.00614166259765625 38.30105972290039 C 0.00616455078125 38.29975128173828 0.0062408447265625 38.29531478881836 0.00626373291015625 38.29400253295898 C 0.006317138671875 38.29094314575195 0.00637054443359375 38.28806686401367 0.0064239501953125 38.28500366210938 C 0.00644683837890625 38.28369522094727 0.00652313232421875 38.2793083190918 0.0065460205078125 38.27799987792969 C 0.0066070556640625 38.27493667602539 0.00666046142578125 38.27178955078125 0.00672149658203125 38.26872634887695 C 0.00676727294921875 38.26610946655273 0.00679779052734375 38.26452255249023 0.00684356689453125 38.26190185546875 C 0.00690460205078125 38.25884246826172 0.00696563720703125 38.25540924072266 0.00702667236328125 38.25234603881836 C 0.00707244873046875 38.24972915649414 0.0070953369140625 38.24864959716797 0.00714111328125 38.24602890014648 C 0.00720977783203125 38.24263000488281 0.00727081298828125 38.23938751220703 0.00733184814453125 38.23598861694336 C 0.00738525390625 38.23336791992188 0.0074005126953125 38.23243713378906 0.00745391845703125 38.22982025146484 C 0.00751495361328125 38.22675704956055 0.007568359375 38.22411727905273 0.00762176513671875 38.22105407714844 C 0.0076751708984375 38.21843719482422 0.007720947265625 38.21623229980469 0.00777435302734375 38.21361541748047 C 0.0078277587890625 38.21055603027344 0.007904052734375 38.2069206237793 0.007965087890625 38.203857421875 C 0.00801849365234375 38.20124053955078 0.00803375244140625 38.20040130615234 0.008087158203125 38.19778442382812 C 0.00830841064453125 38.1869010925293 0.008514404296875 38.17663955688477 0.0087432861328125 38.16575622558594 C 0.0088043212890625 38.16314315795898 0.00881195068359375 38.16254806518555 0.00887298583984375 38.15993118286133 C 0.008941650390625 38.15653228759766 0.00901031494140625 38.15316772460938 0.00908660888671875 38.1497688293457 C 0.0091400146484375 38.14715194702148 0.0091705322265625 38.14569091796875 0.0092315673828125 38.14307403564453 C 0.0092926025390625 38.1400146484375 0.009368896484375 38.13671112060547 0.009429931640625 38.13365173339844 C 0.009490966796875 38.13103485107422 0.00951385498046875 38.1298942565918 0.00957489013671875 38.12727737426758 C 0.00965118408203125 38.12387847900391 0.00971221923828125 38.12104415893555 0.00978851318359375 38.11764526367188 C 0.0098419189453125 38.11502838134766 0.0098876953125 38.11298370361328 0.00994873046875 38.11037063598633 C 0.010009765625 38.10765075683594 0.01007843017578125 38.1044921875 0.01013946533203125 38.10177230834961 C 0.01020050048828125 38.09915924072266 0.01026153564453125 38.09643936157227 0.01032257080078125 38.09382629394531 C 0.01038360595703125 38.09110641479492 0.01043701171875 38.0886116027832 0.01050567626953125 38.08589172363281 C 0.010589599609375 38.08197021484375 0.0106048583984375 38.0814323425293 0.0106964111328125 38.07751083374023 C 0.0107574462890625 38.07479095458984 0.01081085205078125 38.07258987426758 0.01087188720703125 38.06986999511719 C 0.01096343994140625 38.06594848632812 0.0109710693359375 38.06570434570312 0.0110626220703125 38.06178283691406 C 0.0111236572265625 38.05940246582031 0.011199951171875 38.05620574951172 0.01125335693359375 38.05382537841797 C 0.01131439208984375 38.05121231079102 0.011383056640625 38.04832458496094 0.011444091796875 38.04570770263672 C 0.01151275634765625 38.04299163818359 0.01157379150390625 38.04049682617188 0.0116424560546875 38.03777694702148 C 0.0117034912109375 38.03516387939453 0.0117645263671875 38.03248977661133 0.01183319091796875 38.02987670898438 C 0.01189422607421875 38.02715682983398 0.011962890625 38.02454376220703 0.01203155517578125 38.02182769775391 C 0.01209259033203125 38.01921463012695 0.0121612548828125 38.01633834838867 0.01222991943359375 38.01372528076172 C 0.012298583984375 38.01100921630859 0.012359619140625 38.0084114074707 0.01242828369140625 38.00569152832031 C 0.0124969482421875 38.00307846069336 0.01255035400390625 38.00075912475586 0.0126190185546875 37.99814605712891 C 0.01268768310546875 37.99542999267578 0.01276397705078125 37.99233627319336 0.0128326416015625 37.98962020874023 C 0.01290130615234375 37.98700714111328 0.012969970703125 37.98442840576172 0.013031005859375 37.98181533813477 C 0.01309967041015625 37.97909545898438 0.01317596435546875 37.97640609741211 0.01324462890625 37.97369003295898 C 0.01331329345703125 37.97107696533203 0.01337432861328125 37.96857070922852 0.0134429931640625 37.96595764160156 C 0.01351165771484375 37.96324157714844 0.013580322265625 37.96060180664062 0.0136566162109375 37.9578857421875 C 0.01372528076171875 37.95527267456055 0.01380157470703125 37.95223236083984 0.0138702392578125 37.94961929321289 C 0.0139312744140625 37.94724273681641 0.01401519775390625 37.94413375854492 0.0140838623046875 37.94175720214844 C 0.01415252685546875 37.93914413452148 0.01421356201171875 37.93664932250977 0.01428985595703125 37.93403625488281 C 0.0143585205078125 37.93132019042969 0.014434814453125 37.92843246459961 0.0145111083984375 37.92571640014648 C 0.01457977294921875 37.92310333251953 0.01465606689453125 37.92031860351562 0.0147247314453125 37.91770553588867 C 0.014801025390625 37.91498947143555 0.01486968994140625 37.91266632080078 0.0149383544921875 37.90995025634766 C 0.0150146484375 37.9073371887207 0.0150909423828125 37.90444183349609 0.015167236328125 37.90182876586914 C 0.015228271484375 37.89945220947266 0.01531982421875 37.89632034301758 0.015380859375 37.89394378662109 C 0.0154571533203125 37.89133453369141 0.015533447265625 37.88844299316406 0.0156097412109375 37.88583374023438 C 0.01569366455078125 37.88277816772461 0.01576995849609375 37.88014984130859 0.0158538818359375 37.87709808349609 C 0.01589202880859375 37.87578964233398 0.01601409912109375 37.87162017822266 0.01604461669921875 37.87031555175781 C 0.01613616943359375 37.86725997924805 0.01622772216796875 37.86389923095703 0.01631927490234375 37.86084365844727 C 0.01639556884765625 37.85823440551758 0.01644134521484375 37.85664749145508 0.01651763916015625 37.85403442382812 C 0.01659393310546875 37.85132217407227 0.016693115234375 37.84777450561523 0.01677703857421875 37.84505844116211 C 0.01685333251953125 37.84244918823242 0.01689910888671875 37.84071731567383 0.01697540283203125 37.83810424804688 C 0.01706695556640625 37.83505249023438 0.01714324951171875 37.83255386352539 0.0172271728515625 37.82949829101562 C 0.017303466796875 37.82688903808594 0.0173797607421875 37.82448577880859 0.0174560546875 37.82187652587891 C 0.017547607421875 37.81882095336914 0.0176239013671875 37.81610870361328 0.0177154541015625 37.81305313110352 C 0.01779937744140625 37.81044387817383 0.01784515380859375 37.80874633789062 0.01792144775390625 37.80613708496094 C 0.0180206298828125 37.80308151245117 0.0181121826171875 37.79994583129883 0.0182037353515625 37.79689025878906 C 0.018280029296875 37.79428100585938 0.01833343505859375 37.79254150390625 0.0184173583984375 37.78993225097656 C 0.01856231689453125 37.78518295288086 0.0187225341796875 37.77989959716797 0.01886749267578125 37.77515029907227 C 0.01886749267578125 37.77515029907227 0.01889801025390625 37.77421188354492 0.01889801025390625 37.77421188354492 C 0.01906585693359375 37.76878356933594 0.01922607421875 37.7636833190918 0.0193939208984375 37.75825881958008 C 0.01943206787109375 37.75695419311523 0.01949310302734375 37.75505065917969 0.01953887939453125 37.75374603271484 C 0.01966094970703125 37.74967575073242 0.01978302001953125 37.74594116210938 0.0199127197265625 37.74187088012695 C 0.01995086669921875 37.74056625366211 0.0199737548828125 37.7397575378418 0.02001953125 37.73845291137695 C 0.02014923095703125 37.73438262939453 0.0202789306640625 37.73036956787109 0.02040863037109375 37.72630310058594 C 0.0204925537109375 37.72369384765625 0.02056884765625 37.72123336791992 0.02065277099609375 37.71862411499023 C 0.02074432373046875 37.71591186523438 0.02083587646484375 37.71308898925781 0.0209197998046875 37.71037292480469 C 0.02100372314453125 37.70776748657227 0.0211029052734375 37.70468521118164 0.0211944580078125 37.70207595825195 C 0.021270751953125 37.69970321655273 0.0213623046875 37.69692611694336 0.0214385986328125 37.69455337524414 C 0.02152252197265625 37.69194412231445 0.02161407470703125 37.68922424316406 0.021697998046875 37.68661499023438 C 0.02178955078125 37.68390274047852 0.02188873291015625 37.68094635009766 0.02198028564453125 37.6782341003418 C 0.022064208984375 37.67562484741211 0.0221405029296875 37.67344665527344 0.02222442626953125 37.67083740234375 C 0.02231597900390625 37.66812515258789 0.0224151611328125 37.66518402099609 0.0225067138671875 37.6624755859375 C 0.022552490234375 37.66117095947266 0.0227203369140625 37.65608215332031 0.02276611328125 37.65478134155273 C 0.0228729248046875 37.65172958374023 0.02294921875 37.64936065673828 0.0230560302734375 37.64630889892578 C 0.02313995361328125 37.64369964599609 0.02321624755859375 37.6416015625 0.02330780029296875 37.63899612426758 C 0.02339935302734375 37.63628387451172 0.02350616455078125 37.63309097290039 0.02359771728515625 37.63037872314453 C 0.02368927001953125 37.62777328491211 0.0237579345703125 37.62577056884766 0.0238494873046875 37.62316513061523 C 0.0239410400390625 37.62045288085938 0.02407073974609375 37.61679840087891 0.024169921875 37.61408615112305 C 0.02425384521484375 37.61148071289062 0.02431488037109375 37.60986328125 0.02440643310546875 37.60725784301758 C 0.02451324462890625 37.60420608520508 0.02460479736328125 37.60147857666016 0.02471923828125 37.59843063354492 C 0.024810791015625 37.5958251953125 0.0248870849609375 37.59352874755859 0.0249786376953125 37.59092330932617 C 0.02509307861328125 37.58787536621094 0.025177001953125 37.58544540405273 0.0252838134765625 37.5823974609375 C 0.0253753662109375 37.57978820800781 0.02545928955078125 37.57748031616211 0.0255584716796875 37.57487487792969 C 0.0256500244140625 37.57216644287109 0.02574920654296875 37.56947708129883 0.025848388671875 37.56676864624023 C 0.02593994140625 37.56416320800781 0.02603912353515625 37.56142044067383 0.0261383056640625 37.55881500244141 C 0.02623748779296875 37.55610656738281 0.026336669921875 37.55328750610352 0.02643585205078125 37.55057907104492 C 0.02652740478515625 37.5479736328125 0.02661895751953125 37.54552459716797 0.0267181396484375 37.54291915893555 C 0.026824951171875 37.53987121582031 0.02690887451171875 37.53759765625 0.0270233154296875 37.53454971313477 C 0.02712249755859375 37.53194427490234 0.02719879150390625 37.52980804443359 0.0272979736328125 37.52719879150391 C 0.02741241455078125 37.52415084838867 0.0275115966796875 37.52135467529297 0.02762603759765625 37.51830673217773 C 0.0277252197265625 37.51570129394531 0.027801513671875 37.51375961303711 0.02789306640625 37.51115417480469 C 0.0279998779296875 37.50844573974609 0.0281219482421875 37.50509643554688 0.028228759765625 37.50238800048828 C 0.0283203125 37.49978256225586 0.02838897705078125 37.49796295166016 0.0284881591796875 37.49535751342773 C 0.02861785888671875 37.49197387695312 0.028717041015625 37.48937225341797 0.02884674072265625 37.48598480224609 C 0.028900146484375 37.48468399047852 0.029052734375 37.48063659667969 0.02910614013671875 37.47933197021484 C 0.0292205810546875 37.47628402709961 0.029327392578125 37.47348022460938 0.02944183349609375 37.47043228149414 C 0.0294952392578125 37.46913146972656 0.02967071533203125 37.46455383300781 0.02972412109375 37.46324920654297 C 0.0298309326171875 37.46054077148438 0.0299530029296875 37.45740127563477 0.03005218505859375 37.45469284057617 C 0.03015899658203125 37.45208740234375 0.03025054931640625 37.44971466064453 0.0303497314453125 37.44710922241211 C 0.0304412841796875 37.44474029541016 0.0305633544921875 37.44168090820312 0.0306549072265625 37.43931198120117 C 0.03076171875 37.43670654296875 0.03087615966796875 37.43376159667969 0.030975341796875 37.43115615844727 C 0.03108978271484375 37.42844772338867 0.03118896484375 37.42581558227539 0.0312957763671875 37.4231071472168 C 0.031402587890625 37.42050170898438 0.0315093994140625 37.41783142089844 0.0316162109375 37.41522979736328 C 0.03173065185546875 37.41218185424805 0.031829833984375 37.4098014831543 0.031951904296875 37.40675735473633 C 0.0320587158203125 37.40415191650391 0.03214263916015625 37.40203094482422 0.03224945068359375 37.3994255065918 C 0.03238677978515625 37.39604187011719 0.03252410888671875 37.39255905151367 0.03266143798828125 37.38917541503906 C 0.03276824951171875 37.38656997680664 0.03278350830078125 37.38613128662109 0.03289031982421875 37.38352966308594 C 0.03305816650390625 37.37947082519531 0.033203125 37.37601089477539 0.03336334228515625 37.37195205688477 C 0.033416748046875 37.37065124511719 0.0334930419921875 37.36883544921875 0.03354644775390625 37.36753463745117 C 0.0337677001953125 37.36212158203125 0.03397369384765625 37.35712432861328 0.03420257568359375 37.35171127319336 C 0.0342559814453125 37.35041046142578 0.03436279296875 37.34777450561523 0.034423828125 37.34647369384766 C 0.034576416015625 37.34275436401367 0.0347137451171875 37.33940505981445 0.03487396240234375 37.33568572998047 C 0.03498077392578125 37.33308410644531 0.03501129150390625 37.33244705200195 0.03511810302734375 37.3298454284668 C 0.0352630615234375 37.32646179199219 0.035400390625 37.32312393188477 0.03554534912109375 37.31974411010742 C 0.03565216064453125 37.31714248657227 0.03571319580078125 37.3157844543457 0.03582000732421875 37.31318283081055 C 0.03594970703125 37.31013870239258 0.0360870361328125 37.30696105957031 0.03621673583984375 37.30391693115234 C 0.0363311767578125 37.30131530761719 0.03644561767578125 37.29869079589844 0.03655242919921875 37.29608917236328 C 0.03665924072265625 37.29372406005859 0.03679656982421875 37.29043960571289 0.036895751953125 37.2880744934082 C 0.03701019287109375 37.28547286987305 0.037109375 37.28318786621094 0.03722381591796875 37.28058624267578 C 0.0373382568359375 37.27788162231445 0.03748321533203125 37.27463912963867 0.03759765625 37.27193450927734 C 0.03771209716796875 37.26933288574219 0.03778839111328125 37.2675895690918 0.03790283203125 37.26498794555664 C 0.0380401611328125 37.26194381713867 0.03816986083984375 37.25889587402344 0.03830718994140625 37.25585174560547 C 0.038360595703125 37.25455093383789 0.0385284423828125 37.25069427490234 0.0385894775390625 37.24939346313477 C 0.038726806640625 37.2463493347168 0.03887176513671875 37.24298477172852 0.03900909423828125 37.23994064331055 C 0.0390625 37.23863983154297 0.0392608642578125 37.23430633544922 0.03931427001953125 37.23300552368164 C 0.03945159912109375 37.22996520996094 0.039581298828125 37.22702789306641 0.0397186279296875 37.2239875793457 C 0.0397796630859375 37.22268676757812 0.0399627685546875 37.21850204467773 0.0400238037109375 37.21720123291016 C 0.0401611328125 37.21415710449219 0.04029083251953125 37.21120834350586 0.040435791015625 37.20816421508789 C 0.04055023193359375 37.20556640625 0.0406494140625 37.20331192016602 0.040771484375 37.20071411132812 C 0.0408935546875 37.1980094909668 0.04102325439453125 37.19516754150391 0.04114532470703125 37.19246292114258 C 0.04126739501953125 37.18986129760742 0.0413818359375 37.18730926513672 0.04149627685546875 37.18471145629883 C 0.0416259765625 37.1820068359375 0.041748046875 37.17935180664062 0.0418701171875 37.17665100097656 C 0.0419921875 37.17404937744141 0.04212188720703125 37.17110824584961 0.04224395751953125 37.16850662231445 C 0.0423736572265625 37.16580581665039 0.04248046875 37.16340255737305 0.04261016845703125 37.16070175170898 C 0.042724609375 37.15810012817383 0.0428466796875 37.15560150146484 0.04296875 37.15299987792969 C 0.0430908203125 37.15029907226562 0.04323577880859375 37.147216796875 0.043365478515625 37.14451217651367 C 0.043487548828125 37.14191436767578 0.0435943603515625 37.13962173461914 0.0437164306640625 37.13702392578125 C 0.043853759765625 37.13398361206055 0.04396820068359375 37.13153839111328 0.0441131591796875 37.12849807739258 C 0.0442352294921875 37.12590026855469 0.0443267822265625 37.12400436401367 0.0444488525390625 37.12140274047852 C 0.04459381103515625 37.11836242675781 0.04473114013671875 37.11546325683594 0.0448760986328125 37.11242294311523 C 0.04500579833984375 37.10982513427734 0.04509735107421875 37.10780715942383 0.04521942138671875 37.10520935058594 C 0.04534912109375 37.10250473022461 0.045501708984375 37.09931945800781 0.04563140869140625 37.09661865234375 C 0.0457611083984375 37.09402084350586 0.0458526611328125 37.09205627441406 0.04598236083984375 37.08945846557617 C 0.0461273193359375 37.08641815185547 0.0462646484375 37.0836296081543 0.04640960693359375 37.08058929443359 C 0.04647064208984375 37.07929229736328 0.04669189453125 37.07470321655273 0.04676055908203125 37.07340240478516 C 0.046905517578125 37.07036590576172 0.04703521728515625 37.06765747070312 0.04718780517578125 37.06461715698242 C 0.04724884033203125 37.06331634521484 0.04746246337890625 37.05892181396484 0.0475311279296875 37.05762100219727 C 0.04767608642578125 37.05458450317383 0.04781341552734375 37.05173492431641 0.04796600341796875 37.0486946105957 C 0.048095703125 37.04609680175781 0.04819488525390625 37.04412078857422 0.04831695556640625 37.04152297973633 C 0.04846954345703125 37.03848266601562 0.048614501953125 37.03561782836914 0.04876708984375 37.0325813293457 C 0.04889678955078125 37.02998352050781 0.04897308349609375 37.02841186523438 0.049102783203125 37.02581405639648 C 0.0492706298828125 37.02243804931641 0.0494232177734375 37.01934814453125 0.049591064453125 37.01597595214844 C 0.04972076416015625 37.01337814331055 0.04976654052734375 37.01249313354492 0.049896240234375 37.00989532470703 C 0.05010223388671875 37.0058479309082 0.05031585693359375 37.0015754699707 0.0505218505859375 36.99752426147461 C 0.05059051513671875 36.9962272644043 0.0506134033203125 36.99563217163086 0.05068206787109375 36.99433517456055 C 0.0508880615234375 36.99028396606445 0.05107879638671875 36.98647308349609 0.0512847900390625 36.98242568969727 C 0.05135345458984375 36.98112869262695 0.05144500732421875 36.97927856445312 0.051513671875 36.97797775268555 C 0.05173492431640625 36.97359085083008 0.05194091796875 36.96970748901367 0.05216217041015625 36.9653205871582 C 0.0522308349609375 36.96402359008789 0.0522613525390625 36.96342849731445 0.05233001708984375 36.96213150024414 C 0.05260467529296875 36.95672988891602 0.05286407470703125 36.95170593261719 0.0531463623046875 36.94630813598633 C 0.05321502685546875 36.94501113891602 0.0533447265625 36.94248580932617 0.05341339111328125 36.94118499755859 C 0.0536041259765625 36.93747711181641 0.0537872314453125 36.93391036987305 0.053985595703125 36.93019866943359 C 0.0541229248046875 36.92760467529297 0.054229736328125 36.92553329467773 0.0543670654296875 36.92293930053711 C 0.05450439453125 36.92023849487305 0.05464935302734375 36.91748809814453 0.0547943115234375 36.91478729248047 C 0.054931640625 36.91219329833984 0.05512237548828125 36.90851593017578 0.05525970458984375 36.90592193603516 C 0.055389404296875 36.90356063842773 0.05551910400390625 36.90099716186523 0.0556488037109375 36.89863586425781 C 0.0557861328125 36.89604187011719 0.05591583251953125 36.8935432434082 0.05605316162109375 36.89094924926758 C 0.05622100830078125 36.88791275024414 0.05632781982421875 36.88580703735352 0.05649566650390625 36.88277053833008 C 0.05663299560546875 36.88017654418945 0.0567474365234375 36.8780403137207 0.056884765625 36.87544250488281 C 0.05702972412109375 36.87274551391602 0.05721282958984375 36.86935043334961 0.0573577880859375 36.86665344238281 C 0.0574951171875 36.86405944824219 0.05760955810546875 36.86203002929688 0.05774688720703125 36.85943603515625 C 0.057891845703125 36.85673904418945 0.0580596923828125 36.85372543334961 0.05820465087890625 36.85102844238281 C 0.05834197998046875 36.84843444824219 0.0584869384765625 36.84586715698242 0.058624267578125 36.8432731628418 C 0.05876922607421875 36.840576171875 0.058929443359375 36.83767318725586 0.05908203125 36.83497619628906 C 0.0592193603515625 36.83238220214844 0.0593414306640625 36.83018493652344 0.05948638916015625 36.82759475708008 C 0.05963134765625 36.82489776611328 0.0597991943359375 36.8217887878418 0.0599517822265625 36.819091796875 C 0.06009674072265625 36.81650161743164 0.060211181640625 36.81440353393555 0.06035614013671875 36.81181335449219 C 0.0605010986328125 36.80911636352539 0.0606842041015625 36.80583953857422 0.0608367919921875 36.80314254760742 C 0.06097412109375 36.8005485534668 0.0611114501953125 36.79809951782227 0.06125640869140625 36.79550552368164 C 0.06140899658203125 36.79280853271484 0.06154632568359375 36.79038238525391 0.0616912841796875 36.78768539428711 C 0.06183624267578125 36.78509521484375 0.06201171875 36.78202819824219 0.06215667724609375 36.77943801879883 C 0.062286376953125 36.77707672119141 0.06246185302734375 36.77396392822266 0.06259918212890625 36.77160263061523 C 0.062744140625 36.76900863647461 0.0628814697265625 36.76655197143555 0.06302642822265625 36.76395797729492 C 0.063201904296875 36.76092529296875 0.06334686279296875 36.75837326049805 0.06351470947265625 36.75534057617188 C 0.06366729736328125 36.75274658203125 0.06375885009765625 36.75102233886719 0.06391143798828125 36.74842834472656 C 0.06407928466796875 36.74539566040039 0.0642547607421875 36.74237442016602 0.06443023681640625 36.73934555053711 C 0.0645751953125 36.73675155639648 0.0646820068359375 36.7348747253418 0.0648345947265625 36.73228454589844 C 0.06500244140625 36.72925186157227 0.06514739990234375 36.72677612304688 0.0653228759765625 36.7237434387207 C 0.0654754638671875 36.72115325927734 0.0655975341796875 36.718994140625 0.06574249267578125 36.71640014648438 C 0.06591796875 36.71337127685547 0.06607818603515625 36.7107048034668 0.066253662109375 36.70767593383789 C 0.06639862060546875 36.70508193969727 0.06652069091796875 36.70305252075195 0.06667327880859375 36.70046234130859 C 0.06682586669921875 36.69776916503906 0.06700897216796875 36.69465637207031 0.06716156005859375 36.69196319580078 C 0.06731414794921875 36.68937301635742 0.06743621826171875 36.68725967407227 0.06758880615234375 36.68466949462891 C 0.06777191162109375 36.68163681030273 0.06793212890625 36.67884063720703 0.06810760498046875 36.67580795288086 C 0.06818389892578125 36.67451477050781 0.068450927734375 36.66999435424805 0.0685272216796875 36.66869735717773 C 0.06868743896484375 36.6660041809082 0.06885528564453125 36.66322326660156 0.0690155029296875 36.66053009033203 C 0.069244384765625 36.65664291381836 0.06925201416015625 36.65648651123047 0.06948089599609375 36.6525993347168 C 0.06964111328125 36.64990615844727 0.0697784423828125 36.64759063720703 0.06993865966796875 36.6448974609375 C 0.07016754150390625 36.64101409912109 0.07019805908203125 36.64060974121094 0.07042694091796875 36.63672256469727 C 0.070587158203125 36.63402938842773 0.07076263427734375 36.63111114501953 0.0709228515625 36.62841796875 C 0.07108306884765625 36.62582778930664 0.071197509765625 36.62382507324219 0.07135772705078125 36.62123489379883 C 0.07155609130859375 36.61786651611328 0.0717315673828125 36.61500549316406 0.07193756103515625 36.61164093017578 C 0.07209014892578125 36.60905075073242 0.0721588134765625 36.60787963867188 0.07231903076171875 36.60528945922852 C 0.07250213623046875 36.60226058959961 0.07270050048828125 36.59906005859375 0.07288360595703125 36.59603118896484 C 0.07303619384765625 36.59344100952148 0.07312774658203125 36.59196472167969 0.0732879638671875 36.58937454223633 C 0.07349395751953125 36.58600997924805 0.0737152099609375 36.58229446411133 0.07392120361328125 36.57892990112305 C 0.0740814208984375 36.57633972167969 0.07408905029296875 36.57621002197266 0.074249267578125 36.5736198425293 C 0.0752410888671875 36.55746459960938 0.076202392578125 36.54194641113281 0.07721710205078125 36.52579498291016 C 0.07729339599609375 36.52450180053711 0.0773162841796875 36.52418518066406 0.07740020751953125 36.52289199829102 C 0.077667236328125 36.51851654052734 0.07794189453125 36.51419448852539 0.078216552734375 36.50982284545898 C 0.07830047607421875 36.50852966308594 0.07834625244140625 36.50783538818359 0.07842254638671875 36.50654220581055 C 0.07868194580078125 36.50250244140625 0.07897186279296875 36.49785995483398 0.07923126220703125 36.49382400512695 C 0.07930755615234375 36.49253082275391 0.07939910888671875 36.49113082885742 0.0794830322265625 36.48983764648438 C 0.079742431640625 36.48580169677734 0.0799713134765625 36.4821662902832 0.080230712890625 36.47813034057617 C 0.08039093017578125 36.47554016113281 0.08040618896484375 36.47539520263672 0.08056640625 36.47280883789062 C 0.08080291748046875 36.46910858154297 0.08100128173828125 36.46603012084961 0.08123779296875 36.46232986450195 C 0.08132171630859375 36.46103668212891 0.08155059814453125 36.45754623413086 0.081634521484375 36.45625305175781 C 0.08182525634765625 36.45322418212891 0.08206939697265625 36.44949340820312 0.0822601318359375 36.44646835327148 C 0.08234405517578125 36.44517517089844 0.0825653076171875 36.44174194335938 0.08264923095703125 36.44044876098633 C 0.0828704833984375 36.43708419799805 0.08307647705078125 36.43389511108398 0.0832977294921875 36.4305305480957 C 0.08338165283203125 36.42923736572266 0.08361053466796875 36.42574310302734 0.0836944580078125 36.4244499206543 C 0.0839080810546875 36.42108535766602 0.0841064453125 36.41808700561523 0.08432769775390625 36.41472244262695 C 0.08441162109375 36.41342926025391 0.08466339111328125 36.40957260131836 0.084747314453125 36.40827941894531 C 0.0849456787109375 36.40525436401367 0.0851593017578125 36.40206527709961 0.085357666015625 36.39904022216797 C 0.0855255126953125 36.39645385742188 0.08563995361328125 36.394775390625 0.08580780029296875 36.39218902587891 C 0.08600616455078125 36.38916397094727 0.08621978759765625 36.38600158691406 0.08641815185546875 36.38297653198242 C 0.08658599853515625 36.38039016723633 0.086669921875 36.37921142578125 0.0868377685546875 36.37662506103516 C 0.0870361328125 36.37360382080078 0.0872650146484375 36.37019348144531 0.08747100830078125 36.36716842651367 C 0.08763885498046875 36.36458587646484 0.08774566650390625 36.36300277709961 0.087921142578125 36.36041641235352 C 0.0881195068359375 36.35739135742188 0.08831787109375 36.35448837280273 0.0885162353515625 36.35146331787109 C 0.08869171142578125 36.34888076782227 0.08880615234375 36.34715270996094 0.08898162841796875 36.34456634521484 C 0.0891876220703125 36.3415412902832 0.08937835693359375 36.33863830566406 0.0895843505859375 36.33561325073242 C 0.08975982666015625 36.33302688598633 0.08988189697265625 36.33114242553711 0.090057373046875 36.32855606079102 C 0.09026336669921875 36.32553482055664 0.0904541015625 36.32279586791992 0.0906524658203125 36.31977081298828 C 0.09082794189453125 36.31718444824219 0.09095001220703125 36.31545639038086 0.09112548828125 36.31287002563477 C 0.09133148193359375 36.30984878540039 0.09154510498046875 36.30667495727539 0.0917510986328125 36.30365371704102 C 0.09192657470703125 36.30106735229492 0.0920257568359375 36.29968643188477 0.09220123291015625 36.29710006713867 C 0.0924072265625 36.2940788269043 0.0926361083984375 36.29073333740234 0.09284210205078125 36.2877082824707 C 0.09293365478515625 36.28641891479492 0.09320068359375 36.28250122070312 0.093292236328125 36.28121185302734 C 0.09349822998046875 36.2781867980957 0.09371185302734375 36.27509689331055 0.09392547607421875 36.27207565307617 C 0.0940093994140625 36.27078247070312 0.09430694580078125 36.26653289794922 0.09439849853515625 36.26523971557617 C 0.09462738037109375 36.26188278198242 0.09482574462890625 36.25904083251953 0.09505462646484375 36.25568389892578 C 0.09514617919921875 36.25439071655273 0.0953826904296875 36.25103759765625 0.0954742431640625 36.2497444152832 C 0.095703125 36.24638748168945 0.09595489501953125 36.24280166625977 0.09619140625 36.23944091796875 C 0.096282958984375 36.23815155029297 0.09649658203125 36.23505783081055 0.096588134765625 36.2337646484375 C 0.09682464599609375 36.23040771484375 0.0970611572265625 36.22700500488281 0.09729766845703125 36.22364807128906 C 0.09748077392578125 36.22106552124023 0.0975189208984375 36.22049331665039 0.0977020263671875 36.21791076660156 C 0.09793853759765625 36.21455383300781 0.09818267822265625 36.2110595703125 0.09842681884765625 36.20770263671875 C 0.098602294921875 36.20512008666992 0.09864044189453125 36.2045783996582 0.09882354736328125 36.20199584960938 C 0.099090576171875 36.19830322265625 0.09938812255859375 36.19408798217773 0.09964752197265625 36.19039535522461 C 0.0997467041015625 36.18910217285156 0.09984588623046875 36.18767929077148 0.09993743896484375 36.1863899230957 C 0.100250244140625 36.18202590942383 0.1005477905273438 36.17783355712891 0.100860595703125 36.17346954345703 C 0.1009521484375 36.17217636108398 0.100982666015625 36.17173385620117 0.10107421875 36.17044448852539 C 0.10223388671875 36.15433502197266 0.1033782958984375 36.13851547241211 0.10455322265625 36.12240982055664 C 0.10455322265625 36.12240982055664 0.10455322265625 36.12236404418945 0.10455322265625 36.12236404418945 C 0.1049423217773438 36.11699676513672 0.1053085327148438 36.11204528808594 0.1056976318359375 36.1066780090332 C 0.1057968139648438 36.10538864135742 0.1058425903320312 36.10474395751953 0.1059341430664062 36.10345077514648 C 0.1062545776367188 36.09909057617188 0.1065597534179688 36.09501266479492 0.1068801879882812 36.09065246582031 C 0.1069717407226562 36.08936309814453 0.1070327758789062 36.08852005004883 0.1071319580078125 36.08723068237305 C 0.1074295043945312 36.08320236206055 0.1077346801757812 36.07909774780273 0.1080322265625 36.0750732421875 C 0.1082229614257812 36.07249069213867 0.10821533203125 36.07254409790039 0.1084136962890625 36.06996154785156 C 0.1086807250976562 36.0662727355957 0.10894775390625 36.06275939941406 0.109222412109375 36.0590705871582 C 0.10931396484375 36.05778121948242 0.1094894409179688 36.05548477172852 0.109588623046875 36.05419158935547 C 0.10986328125 36.05050277709961 0.1101226806640625 36.04697418212891 0.1103973388671875 36.04328536987305 C 0.1104965209960938 36.04199600219727 0.1107025146484375 36.03925704956055 0.1108016967773438 36.03796768188477 C 0.111053466796875 36.03461456298828 0.1113433837890625 36.03076553344727 0.1115951538085938 36.02741241455078 C 0.1116943359375 36.026123046875 0.1119003295898438 36.0233039855957 0.11199951171875 36.02201461791992 C 0.1122512817382812 36.01866149902344 0.1125335693359375 36.01499557495117 0.1127853393554688 36.01164245605469 C 0.112884521484375 36.01035308837891 0.1131134033203125 36.00734329223633 0.1132125854492188 36.00605392456055 C 0.11346435546875 36.00270080566406 0.1137466430664062 35.99893569946289 0.1140060424804688 35.99558258056641 C 0.114105224609375 35.99429321289062 0.1143112182617188 35.99156951904297 0.114410400390625 35.99028015136719 C 0.1146926879882812 35.98659133911133 0.11492919921875 35.9835319519043 0.1152114868164062 35.9798469543457 C 0.1153030395507812 35.97855758666992 0.11553955078125 35.97552108764648 0.1156387329101562 35.9742317199707 C 0.1158981323242188 35.97088241577148 0.1161651611328125 35.96741485595703 0.1164169311523438 35.96406173706055 C 0.1166152954101562 35.96148300170898 0.1166763305664062 35.96076202392578 0.1168746948242188 35.95818328857422 C 0.1171340942382812 35.954833984375 0.11737060546875 35.95170974731445 0.1176300048828125 35.94836044311523 C 0.117828369140625 35.94578170776367 0.1179046630859375 35.94488143920898 0.11810302734375 35.94230270385742 C 0.1183624267578125 35.93894958496094 0.1186141967773438 35.93574142456055 0.1188735961914062 35.93238830566406 C 0.1190719604492188 35.92981338500977 0.119140625 35.92897796630859 0.1193389892578125 35.92639923095703 C 0.119598388671875 35.92304992675781 0.1198348999023438 35.92004013061523 0.1200942993164062 35.91668701171875 C 0.12030029296875 35.91411209106445 0.1203765869140625 35.91312408447266 0.120574951171875 35.91054916381836 C 0.1208114624023438 35.90753173828125 0.1211013793945312 35.90388488769531 0.121337890625 35.90087127685547 C 0.1215362548828125 35.89829254150391 0.1216354370117188 35.8971061706543 0.1218338012695312 35.89452743530273 C 0.1220703125 35.89151382446289 0.122314453125 35.88846206665039 0.1225509643554688 35.88544845581055 C 0.1227569580078125 35.88286972045898 0.1228866577148438 35.88121795654297 0.1230926513671875 35.87863922119141 C 0.1233596801757812 35.87528991699219 0.1235733032226562 35.87252426147461 0.12384033203125 35.86917495727539 C 0.1239471435546875 35.86788558959961 0.1242294311523438 35.86428833007812 0.12432861328125 35.86299896240234 C 0.1245956420898438 35.85964965820312 0.1248397827148438 35.85660934448242 0.1251068115234375 35.8532600402832 C 0.125213623046875 35.85197067260742 0.12548828125 35.84848403930664 0.1255950927734375 35.84719467163086 C 0.1258621215820312 35.84384918212891 0.1261520385742188 35.84024047851562 0.1264190673828125 35.83689117431641 C 0.12652587890625 35.83560562133789 0.1267471313476562 35.83283615112305 0.1268463134765625 35.83154678344727 C 0.1271438598632812 35.82786560058594 0.1273956298828125 35.82471084594727 0.1276931762695312 35.82102966308594 C 0.1279067993164062 35.81845474243164 0.1279220581054688 35.81819534301758 0.1281356811523438 35.81562042236328 C 0.1284332275390625 35.81193923950195 0.1287460327148438 35.8079948425293 0.1290512084960938 35.80431365966797 C 0.1292572021484375 35.80173873901367 0.1291885375976562 35.80256652832031 0.12939453125 35.79999160766602 C 0.1297531127929688 35.79563903808594 0.130096435546875 35.79142379760742 0.1304473876953125 35.78707504272461 C 0.13055419921875 35.78578567504883 0.1305694580078125 35.78555679321289 0.13067626953125 35.78426742553711 C 0.1310882568359375 35.77924728393555 0.1314849853515625 35.77435684204102 0.13189697265625 35.76933670043945 C 0.1320037841796875 35.76804733276367 0.131866455078125 35.7697639465332 0.1319732666015625 35.76847457885742 C 0.13372802734375 35.74705505371094 0.1354827880859375 35.72589492797852 0.13726806640625 35.70448684692383 C 0.1373825073242188 35.70320129394531 0.1373062133789062 35.70404434204102 0.1374130249023438 35.7027587890625 C 0.1378097534179688 35.69807434082031 0.1381988525390625 35.69342803955078 0.1385955810546875 35.68874359130859 C 0.138702392578125 35.68745803833008 0.1387863159179688 35.68647384643555 0.1388931274414062 35.68518829345703 C 0.1392288208007812 35.68117523193359 0.13958740234375 35.67692565917969 0.139923095703125 35.67291259765625 C 0.1400375366210938 35.67162704467773 0.1401443481445312 35.67036056518555 0.1402511596679688 35.66907501220703 C 0.1405868530273438 35.66506195068359 0.14093017578125 35.66103744506836 0.1412734985351562 35.65702438354492 C 0.1413803100585938 35.65573883056641 0.141510009765625 35.65424728393555 0.1416168212890625 35.65296173095703 C 0.1419601440429688 35.64894866943359 0.14227294921875 35.64523696899414 0.1426162719726562 35.6412239074707 C 0.1427230834960938 35.63993835449219 0.14288330078125 35.63807678222656 0.1429977416992188 35.63679122924805 C 0.143341064453125 35.63277816772461 0.14361572265625 35.62953948974609 0.1439590454101562 35.62552642822266 C 0.1440658569335938 35.62424087524414 0.1442794799804688 35.62175369262695 0.1443939208984375 35.62046813964844 C 0.1446762084960938 35.61712265014648 0.1450424194335938 35.61293029785156 0.14532470703125 35.60958862304688 C 0.1454391479492188 35.60830307006836 0.1456222534179688 35.6061897277832 0.1457290649414062 35.60490036010742 C 0.1460494995117188 35.60122680664062 0.1463775634765625 35.59739303588867 0.146697998046875 35.59371566772461 C 0.1468124389648438 35.59243011474609 0.147003173828125 35.5902099609375 0.1471099853515625 35.58892440795898 C 0.147430419921875 35.58524703979492 0.1477508544921875 35.58160781860352 0.1480636596679688 35.57793045043945 C 0.1481781005859375 35.57664489746094 0.1483917236328125 35.57424163818359 0.14849853515625 35.57295608520508 C 0.1488189697265625 35.56927871704102 0.14910888671875 35.56595230102539 0.1494293212890625 35.56227493286133 C 0.149658203125 35.5597038269043 0.1496810913085938 35.55942153930664 0.14990234375 35.55685043334961 C 0.1501998901367188 35.55350875854492 0.1505279541015625 35.54972076416016 0.1508255004882812 35.54637908935547 C 0.1510467529296875 35.54380798339844 0.15106201171875 35.54369735717773 0.1512832641601562 35.5411262512207 C 0.151580810546875 35.53778457641602 0.1519088745117188 35.53399276733398 0.1522064208984375 35.5306510925293 C 0.152435302734375 35.52807998657227 0.1524581909179688 35.52775192260742 0.1526870727539062 35.52518463134766 C 0.152984619140625 35.52184295654297 0.1533279418945312 35.51792526245117 0.15362548828125 35.51458358764648 C 0.1537399291992188 35.51329803466797 0.1539459228515625 35.51092910766602 0.1540603637695312 35.50964736938477 C 0.154388427734375 35.5059700012207 0.1547088623046875 35.50240325927734 0.1550369262695312 35.49872970581055 C 0.1551513671875 35.49744415283203 0.1553726196289062 35.49490356445312 0.155487060546875 35.49362182617188 C 0.1558151245117188 35.48994445800781 0.1561203002929688 35.48649215698242 0.1564559936523438 35.48281860351562 C 0.1565704345703125 35.48153305053711 0.156768798828125 35.47927856445312 0.1568832397460938 35.47799301147461 C 0.1572113037109375 35.47431945800781 0.1575546264648438 35.47049331665039 0.1578826904296875 35.46681976318359 C 0.1579971313476562 35.46553802490234 0.1581954956054688 35.46338272094727 0.1583099365234375 35.46210098266602 C 0.1586380004882812 35.45842742919922 0.1590042114257812 35.45438385009766 0.159332275390625 35.45071029663086 C 0.159454345703125 35.44942474365234 0.15960693359375 35.44773101806641 0.1597213745117188 35.44644546508789 C 0.1600799560546875 35.44244003295898 0.1604080200195312 35.4388427734375 0.1607742309570312 35.43483734130859 C 0.160888671875 35.43355178833008 0.1610488891601562 35.43180084228516 0.161163330078125 35.43051910400391 C 0.1615219116210938 35.42650985717773 0.1619186401367188 35.42221069335938 0.1622848510742188 35.41820526123047 C 0.1622848510742188 35.41820526123047 0.1625823974609375 35.4149169921875 0.1625823974609375 35.4149169921875 C 0.1629486083984375 35.41091156005859 0.1633758544921875 35.40623474121094 0.1637420654296875 35.40222930908203 C 0.1638565063476562 35.40094375610352 0.1639175415039062 35.40027236938477 0.1640396118164062 35.39898681640625 C 0.1644668579101562 35.39431381225586 0.1649093627929688 35.38941955566406 0.16534423828125 35.38474655151367 C 0.1654586791992188 35.38346481323242 0.1653518676757812 35.38465881347656 0.16546630859375 35.38337326049805 C 0.1659011840820312 35.37870025634766 0.1663436889648438 35.37387084960938 0.1667709350585938 35.36920166015625 C 0.1668930053710938 35.36791610717773 0.1668319702148438 35.36859893798828 0.1669464111328125 35.36731719970703 C 0.1689224243164062 35.3459587097168 0.1708755493164062 35.32495498657227 0.172882080078125 35.30360794067383 C 0.173004150390625 35.30232620239258 0.172882080078125 35.30360794067383 0.173004150390625 35.30232620239258 C 0.1734771728515625 35.29732131958008 0.173919677734375 35.29264831542969 0.1743927001953125 35.28764724731445 C 0.1745071411132812 35.28636169433594 0.1743927001953125 35.28759765625 0.1745147705078125 35.28631591796875 C 0.17498779296875 35.28131103515625 0.1754074096679688 35.27684783935547 0.1758880615234375 35.27184295654297 C 0.1758880615234375 35.27184295654297 0.17608642578125 35.26974487304688 0.17608642578125 35.26974487304688 C 0.1765289306640625 35.26507568359375 0.1769561767578125 35.26056289672852 0.177398681640625 35.25589370727539 C 0.177398681640625 35.25589370727539 0.1776199340820312 35.25358581542969 0.1776199340820312 35.25358581542969 C 0.1780319213867188 35.24925231933594 0.1784515380859375 35.24488067626953 0.178863525390625 35.24054718017578 C 0.178985595703125 35.23926162719727 0.1791610717773438 35.23742294311523 0.179290771484375 35.23614120483398 C 0.1796722412109375 35.23213958740234 0.1800003051757812 35.22872924804688 0.1803817749023438 35.2247314453125 C 0.1805038452148438 35.22344970703125 0.180694580078125 35.22147369384766 0.180816650390625 35.22019195556641 C 0.1811676025390625 35.21652603149414 0.1815338134765625 35.21272277832031 0.1818923950195312 35.20905685424805 C 0.1820144653320312 35.2077751159668 0.182220458984375 35.20560836791992 0.1823501586914062 35.20432662963867 C 0.1827011108398438 35.20065689086914 0.1830902099609375 35.19664001464844 0.1834487915039062 35.19297409057617 C 0.1835708618164062 35.19169235229492 0.183746337890625 35.18989562988281 0.183868408203125 35.18861389160156 C 0.1842269897460938 35.1849479675293 0.1845779418945312 35.1812858581543 0.1849365234375 35.1776237487793 C 0.18505859375 35.17634201049805 0.185333251953125 35.17354202270508 0.185455322265625 35.17226028442383 C 0.1858139038085938 35.16859436035156 0.1861343383789062 35.16532516479492 0.186492919921875 35.16165924072266 C 0.186614990234375 35.16037750244141 0.1868515014648438 35.15798568725586 0.1869735717773438 35.15670394897461 C 0.1873321533203125 35.15303802490234 0.1876907348632812 35.14937973022461 0.18804931640625 35.14571762084961 C 0.1883010864257812 35.14315414428711 0.1882476806640625 35.14369964599609 0.1884994506835938 35.14113616943359 C 0.1888961791992188 35.13713836669922 0.1892318725585938 35.13374328613281 0.1896209716796875 35.12974548339844 C 0.1898727416992188 35.12718200683594 0.1898117065429688 35.12781524658203 0.1900634765625 35.12525177001953 C 0.1904296875 35.12158584594727 0.1907882690429688 35.11790466308594 0.1911544799804688 35.11424255371094 C 0.1912765502929688 35.11296081542969 0.1915130615234375 35.11061859130859 0.1916351318359375 35.10934066772461 C 0.1920013427734375 35.10567474365234 0.1923980712890625 35.10166931152344 0.1927642822265625 35.09800720214844 C 0.1928863525390625 35.09672546386719 0.19305419921875 35.09506988525391 0.1931838989257812 35.09378814697266 C 0.19354248046875 35.09012603759766 0.1939773559570312 35.08575439453125 0.1943435668945312 35.08209228515625 C 0.1944732666015625 35.080810546875 0.1946182250976562 35.07933807373047 0.1947479248046875 35.07805633544922 C 0.1951828002929688 35.07373046875 0.195526123046875 35.07027435302734 0.1959609985351562 35.06594467163086 C 0.1960906982421875 35.06466293334961 0.196197509765625 35.06359100341797 0.1963272094726562 35.06230926513672 C 0.1967239379882812 35.05831527709961 0.1971359252929688 35.05426406860352 0.1975326538085938 35.05027008056641 C 0.197662353515625 35.04898834228516 0.1977920532226562 35.04772567749023 0.1979217529296875 35.04644775390625 C 0.1983566284179688 35.04211807250977 0.1987991333007812 35.03768539428711 0.1992416381835938 35.03335952758789 C 0.1992416381835938 35.03335952758789 0.1994781494140625 35.03099060058594 0.1994781494140625 35.03099060058594 C 0.199951171875 35.02632904052734 0.2004470825195312 35.0213737487793 0.2009201049804688 35.01671600341797 C 0.2009201049804688 35.01671600341797 0.2010650634765625 35.01529693603516 0.2010650634765625 35.01529693603516 C 0.2016067504882812 35.00997161865234 0.2021026611328125 35.00508117675781 0.2026443481445312 34.999755859375 C 0.2026443481445312 34.999755859375 0.202667236328125 34.99958419799805 0.202667236328125 34.99958419799805 C 0.2031707763671875 34.99459457397461 0.2036972045898438 34.98942947387695 0.2042083740234375 34.98443603515625 C 0.2043380737304688 34.98315811157227 0.2041778564453125 34.98477935791016 0.2043075561523438 34.98349761962891 C 0.2080841064453125 34.94656372070312 0.2119522094726562 34.90930938720703 0.2158355712890625 34.87240600585938 C 0.2159652709960938 34.87112426757812 0.2160415649414062 34.87040328979492 0.2161788940429688 34.86912536621094 C 0.2165985107421875 34.86513519287109 0.217041015625 34.86091613769531 0.2174606323242188 34.85692596435547 C 0.2175979614257812 34.85564804077148 0.2178192138671875 34.85355758666992 0.21795654296875 34.85227966308594 C 0.2183456420898438 34.8486213684082 0.2187652587890625 34.84461212158203 0.2191543579101562 34.8409538269043 C 0.2192916870117188 34.83967590332031 0.2194290161132812 34.83834838867188 0.2195663452148438 34.83707046508789 C 0.2199859619140625 34.83308029174805 0.22039794921875 34.82921600341797 0.2208251953125 34.82522964477539 C 0.2209625244140625 34.82394790649414 0.2211532592773438 34.82213973999023 0.2212905883789062 34.82086181640625 C 0.2217178344726562 34.81687545776367 0.222076416015625 34.8134765625 0.222503662109375 34.80948638916016 C 0.2226409912109375 34.80820846557617 0.22283935546875 34.80636596679688 0.2229766845703125 34.80508804321289 C 0.2233657836914062 34.80142974853516 0.223785400390625 34.79749298095703 0.2241744995117188 34.79383850097656 C 0.2243118286132812 34.79256057739258 0.22454833984375 34.79041290283203 0.2246856689453125 34.78913497924805 C 0.2250747680664062 34.78548049926758 0.2255172729492188 34.78139495849609 0.2259063720703125 34.77774047851562 C 0.226043701171875 34.77646255493164 0.2261810302734375 34.77517318725586 0.226318359375 34.77389526367188 C 0.2267532348632812 34.76990509033203 0.2271728515625 34.76601409912109 0.22760009765625 34.76202774047852 C 0.2277374267578125 34.76074981689453 0.2279205322265625 34.75906372070312 0.228057861328125 34.75778579711914 C 0.2284927368164062 34.75379943847656 0.2288818359375 34.75021362304688 0.2293167114257812 34.7462272644043 C 0.2294540405273438 34.74494934082031 0.2296218872070312 34.7433967590332 0.2297592163085938 34.74211883544922 C 0.230194091796875 34.73813247680664 0.230560302734375 34.7347526550293 0.2309951782226562 34.73076629638672 C 0.2312698364257812 34.72821044921875 0.2312393188476562 34.72851943969727 0.2315139770507812 34.7259635925293 C 0.2319488525390625 34.72198104858398 0.2323150634765625 34.71862030029297 0.2327499389648438 34.71463775634766 C 0.2328948974609375 34.71335983276367 0.2330474853515625 34.71194839477539 0.233184814453125 34.71067047119141 C 0.2336196899414062 34.70668411254883 0.2340545654296875 34.70275497436523 0.2344894409179688 34.69876861572266 C 0.2346267700195312 34.69749069213867 0.2347869873046875 34.69607162475586 0.23492431640625 34.69479370117188 C 0.2353668212890625 34.6908073425293 0.2358245849609375 34.68663787841797 0.2362594604492188 34.68265533447266 C 0.2364044189453125 34.68137741088867 0.2364883422851562 34.68056869506836 0.23663330078125 34.67929077148438 C 0.2371063232421875 34.67497253417969 0.2375259399414062 34.67119979858398 0.2379989624023438 34.6668815612793 C 0.2381439208984375 34.66560745239258 0.2382431030273438 34.66466522216797 0.2383880615234375 34.66338729858398 C 0.2388687133789062 34.65907287597656 0.23931884765625 34.65498733520508 0.2397994995117188 34.65067291259766 C 0.2399368286132812 34.64939498901367 0.2399749755859375 34.64909362792969 0.2401123046875 34.6478157043457 C 0.2405929565429688 34.64350128173828 0.2410736083984375 34.63915634155273 0.2415542602539062 34.63484191894531 C 0.24169921875 34.63356399536133 0.2417373657226562 34.63322448730469 0.24188232421875 34.6319465637207 C 0.2423934936523438 34.62730026245117 0.242889404296875 34.62289428710938 0.243408203125 34.61824798583984 C 0.243408203125 34.61824798583984 0.2436141967773438 34.61637878417969 0.2436141967773438 34.61637878417969 C 0.244140625 34.61173248291016 0.2446212768554688 34.60744094848633 0.2451400756835938 34.60279846191406 C 0.2451400756835938 34.60279846191406 0.2454071044921875 34.60039520263672 0.2454071044921875 34.60039520263672 C 0.2501754760742188 34.55792236328125 0.2549591064453125 34.51594924926758 0.2598648071289062 34.47351837158203 C 0.2598648071289062 34.47351837158203 0.2598724365234375 34.47343444824219 0.2598724365234375 34.47343444824219 C 0.2611007690429688 34.46282577514648 0.26226806640625 34.45277786254883 0.2634963989257812 34.44217300415039 C 0.2634963989257812 34.44217300415039 0.2637252807617188 34.44023513793945 0.2637252807617188 34.44023513793945 C 0.2643051147460938 34.43526458740234 0.2647705078125 34.43123626708984 0.265350341796875 34.42626571655273 C 0.265350341796875 34.42626571655273 0.26556396484375 34.4244384765625 0.26556396484375 34.4244384765625 C 0.2661056518554688 34.4197998046875 0.2666091918945312 34.41551971435547 0.26715087890625 34.41088104248047 C 0.267303466796875 34.40960693359375 0.2673568725585938 34.40913009643555 0.2675094604492188 34.40785598754883 C 0.2680130004882812 34.40354919433594 0.2685317993164062 34.39911651611328 0.26904296875 34.39480972290039 C 0.2691879272460938 34.39353561401367 0.2691802978515625 34.39365005493164 0.2693252563476562 34.39237594604492 C 0.26983642578125 34.38806915283203 0.2703399658203125 34.3837776184082 0.2708511352539062 34.37947463989258 C 0.27099609375 34.37820053100586 0.2711181640625 34.37721633911133 0.2712631225585938 34.37594223022461 C 0.2717742919921875 34.37163543701172 0.272216796875 34.36791610717773 0.2727203369140625 34.36361312866211 C 0.2728729248046875 34.36233901977539 0.2729721069335938 34.36149597167969 0.2731246948242188 34.36022186279297 C 0.2735977172851562 34.35624694824219 0.274078369140625 34.35220718383789 0.2745513916015625 34.34823608398438 C 0.2746963500976562 34.34696197509766 0.2748794555664062 34.34544372558594 0.2750320434570312 34.34416961669922 C 0.2755050659179688 34.34019470214844 0.2760162353515625 34.33592224121094 0.2764892578125 34.33194732666016 C 0.2764892578125 34.33194732666016 0.27685546875 34.3288688659668 0.27685546875 34.3288688659668 C 0.2773284912109375 34.32489776611328 0.277862548828125 34.3204231262207 0.2783432006835938 34.31645202636719 C 0.2784881591796875 34.31517791748047 0.2786102294921875 34.31415939331055 0.2787628173828125 34.31288528442383 C 0.2792434692382812 34.30891036987305 0.2797927856445312 34.30435180664062 0.2802658081054688 34.30037689208984 C 0.2804183959960938 34.29910278320312 0.2804794311523438 34.29860687255859 0.2806320190429688 34.29733276367188 C 0.2811508178710938 34.29302978515625 0.2816390991210938 34.28895568847656 0.2821578979492188 34.28465270996094 C 0.2823104858398438 34.28337860107422 0.2823715209960938 34.28287887573242 0.2825241088867188 34.2816047668457 C 0.2830810546875 34.27696990966797 0.2835693359375 34.27293014526367 0.2841339111328125 34.26829528808594 C 0.2842864990234375 34.26702117919922 0.2842483520507812 34.2673225402832 0.2844085693359375 34.26604843139648 C 0.2849273681640625 34.26174545288086 0.2855224609375 34.25680541992188 0.2860488891601562 34.25250244140625 C 0.2862014770507812 34.25122833251953 0.286163330078125 34.25156402587891 0.28631591796875 34.25028991699219 C 0.2868804931640625 34.24565887451172 0.2874298095703125 34.24109649658203 0.287994384765625 34.23646545410156 C 0.287994384765625 34.23646545410156 0.2882308959960938 34.23453521728516 0.2882308959960938 34.23453521728516 C 0.2887954711914062 34.22990417480469 0.28936767578125 34.22521591186523 0.2899322509765625 34.22058486938477 C 0.2899322509765625 34.22058486938477 0.2901535034179688 34.21878051757812 0.2901535034179688 34.21878051757812 C 0.290802001953125 34.2134895324707 0.2913589477539062 34.20891952514648 0.2920074462890625 34.2036247253418 C 0.2920074462890625 34.2036247253418 0.2920608520507812 34.20322799682617 0.2920608520507812 34.20322799682617 C 0.2992019653320312 34.1450080871582 0.306427001953125 34.0871467590332 0.3138275146484375 34.02900695800781 C 0.3138275146484375 34.02900695800781 0.3139419555664062 34.02809906005859 0.3139419555664062 34.02809906005859 C 0.3145675659179688 34.02314376831055 0.315185546875 34.01834106445312 0.3158111572265625 34.01338577270508 C 0.3158111572265625 34.01338577270508 0.316009521484375 34.01187133789062 0.316009521484375 34.01187133789062 C 0.3165969848632812 34.00724792480469 0.3172225952148438 34.00236892700195 0.31781005859375 33.99774551391602 C 0.3179779052734375 33.99647521972656 0.317901611328125 33.99704742431641 0.3180694580078125 33.99577713012695 C 0.3186569213867188 33.99115371704102 0.3192367553710938 33.98661422729492 0.3198318481445312 33.98199081420898 C 0.3199996948242188 33.98072052001953 0.3199310302734375 33.98123931884766 0.3200912475585938 33.9799690246582 C 0.3206863403320312 33.97534561157227 0.3212051391601562 33.97134780883789 0.3218002319335938 33.96672439575195 C 0.32196044921875 33.9654541015625 0.3220596313476562 33.96468353271484 0.3222274780273438 33.96341323852539 C 0.3227386474609375 33.95944976806641 0.32330322265625 33.95508575439453 0.3238143920898438 33.95112228393555 C 0.323974609375 33.94985198974609 0.3240890502929688 33.9489860534668 0.324249267578125 33.94771575927734 C 0.32476806640625 33.94375228881836 0.325347900390625 33.93924331665039 0.3258590698242188 33.93528366088867 C 0.3258590698242188 33.93528366088867 0.3262786865234375 33.93209075927734 0.3262786865234375 33.93209075927734 C 0.3268356323242188 33.92780303955078 0.3274002075195312 33.92344284057617 0.3279571533203125 33.91915130615234 C 0.3279571533203125 33.91915130615234 0.3282699584960938 33.9167594909668 0.3282699584960938 33.9167594909668 C 0.328826904296875 33.91246795654297 0.32940673828125 33.90799713134766 0.3299713134765625 33.90370559692383 C 0.33013916015625 33.90243911743164 0.3302001953125 33.90192413330078 0.3303680419921875 33.90065383911133 C 0.3309326171875 33.89636611938477 0.33148193359375 33.89213180541992 0.3320465087890625 33.88784027099609 C 0.3322067260742188 33.88656997680664 0.3322372436523438 33.88639068603516 0.3323974609375 33.8851203918457 C 0.3329620361328125 33.88083267211914 0.3335113525390625 33.87665176391602 0.334075927734375 33.87236404418945 C 0.3342437744140625 33.87109375 0.3343276977539062 33.87045288085938 0.3344879150390625 33.86918258666992 C 0.335052490234375 33.86489486694336 0.335662841796875 33.86027145385742 0.3362274169921875 33.85598373413086 C 0.336395263671875 33.85471343994141 0.3363418579101562 33.85511779785156 0.3365097045898438 33.85384750366211 C 0.3370742797851562 33.84955978393555 0.3376998901367188 33.84485626220703 0.3382644653320312 33.84056854248047 C 0.3384323120117188 33.83929824829102 0.3384475708007812 33.83915710449219 0.3386154174804688 33.83788681030273 C 0.3392257690429688 33.83326721191406 0.3399200439453125 33.82802581787109 0.3405380249023438 33.82340621948242 C 0.3405380249023438 33.82340621948242 0.34063720703125 33.82264709472656 0.34063720703125 33.82264709472656 C 0.3483352661132812 33.76460266113281 0.35614013671875 33.70676040649414 0.3640899658203125 33.64879608154297 C 0.3640899658203125 33.64879608154297 0.3640975952148438 33.64878463745117 0.3640975952148438 33.64878463745117 C 0.3648147583007812 33.64351654052734 0.3655242919921875 33.63837051391602 0.3662490844726562 33.63310241699219 C 0.3662490844726562 33.63310241699219 0.3663101196289062 33.63267135620117 0.3663101196289062 33.63267135620117 C 0.367034912109375 33.62740325927734 0.3676528930664062 33.62290954589844 0.368377685546875 33.61764144897461 C 0.368377685546875 33.61764144897461 0.3685836791992188 33.6161994934082 0.3685836791992188 33.6161994934082 C 0.3692169189453125 33.61158752441406 0.3699188232421875 33.60651779174805 0.3705596923828125 33.60190963745117 C 0.3707351684570312 33.60064315795898 0.3705978393554688 33.60161590576172 0.3707733154296875 33.60034942626953 C 0.3714141845703125 33.59573745727539 0.3720626831054688 33.59101486206055 0.3727035522460938 33.58640670776367 C 0.3728790283203125 33.58514022827148 0.3728179931640625 33.58560180664062 0.3729934692382812 33.58433532714844 C 0.3736343383789062 33.57972717285156 0.3742904663085938 33.57499694824219 0.3749313354492188 33.57039260864258 C 0.3749313354492188 33.57039260864258 0.3751296997070312 33.5689582824707 0.3751296997070312 33.5689582824707 C 0.3757781982421875 33.56435394287109 0.3765106201171875 33.5590934753418 0.3771514892578125 33.55448532104492 C 0.3771514892578125 33.55448532104492 0.3772964477539062 33.55343246459961 0.3772964477539062 33.55343246459961 C 0.3779449462890625 33.54882431030273 0.3787002563476562 33.54338836669922 0.3793487548828125 33.53878402709961 C 0.3793487548828125 33.53878402709961 0.3795242309570312 33.53755569458008 0.3795242309570312 33.53755569458008 C 0.3801651000976562 33.5329475402832 0.3808670043945312 33.52793502807617 0.3815155029296875 33.5233268737793 C 0.3815155029296875 33.5233268737793 0.3817596435546875 33.52161407470703 0.3817596435546875 33.52161407470703 C 0.3824081420898438 33.51700973510742 0.3830947875976562 33.51210021972656 0.3837432861328125 33.50749588012695 C 0.3837432861328125 33.50749588012695 0.3839645385742188 33.50593566894531 0.3839645385742188 33.50593566894531 C 0.384613037109375 33.50132751464844 0.3853302001953125 33.49625396728516 0.385986328125 33.49164962768555 C 0.3861618041992188 33.49038314819336 0.3859939575195312 33.49157333374023 0.38616943359375 33.49031066894531 C 0.3868255615234375 33.4857063293457 0.3875579833984375 33.48051834106445 0.388214111328125 33.47591400146484 C 0.3883895874023438 33.47464752197266 0.3882293701171875 33.47579956054688 0.3884048461914062 33.47453308105469 C 0.3890609741210938 33.46992874145508 0.38983154296875 33.46449279785156 0.3904876708984375 33.45988845825195 C 0.3904876708984375 33.45988845825195 0.3906173706054688 33.4589729309082 0.3906173706054688 33.4589729309082 C 0.402587890625 33.37479019165039 0.4147720336914062 33.29109191894531 0.4272842407226562 33.20708465576172 C 0.4272842407226562 33.20708465576172 0.427337646484375 33.20673751831055 0.427337646484375 33.20673751831055 C 0.4289016723632812 33.19623947143555 0.4304046630859375 33.18616104125977 0.431976318359375 33.17566299438477 C 0.431976318359375 33.17566299438477 0.4320526123046875 33.17517471313477 0.4320526123046875 33.17517471313477 C 0.4328384399414062 33.16992568969727 0.4335174560546875 33.16535949707031 0.4343109130859375 33.16011047363281 C 0.4343109130859375 33.16011047363281 0.4344329833984375 33.15927124023438 0.4344329833984375 33.15927124023438 C 0.4351730346679688 33.15435028076172 0.4359054565429688 33.14949035644531 0.4366455078125 33.14456939697266 C 0.4366455078125 33.14456939697266 0.43682861328125 33.14334869384766 0.43682861328125 33.14334869384766 C 0.4375686645507812 33.138427734375 0.4383087158203125 33.13351058959961 0.439056396484375 33.12859344482422 C 0.439056396484375 33.12859344482422 0.4391555786132812 33.1279411315918 0.4391555786132812 33.1279411315918 C 0.43994140625 33.12269592285156 0.4406356811523438 33.11811065673828 0.4414291381835938 33.11286544799805 C 0.4414291381835938 33.11286544799805 0.4415283203125 33.11220550537109 0.4415283203125 33.11220550537109 C 0.4423294067382812 33.10696029663086 0.44305419921875 33.1021728515625 0.44384765625 33.09692764282227 C 0.44384765625 33.09692764282227 0.4438934326171875 33.09664916992188 0.4438934326171875 33.09664916992188 C 0.4446868896484375 33.09140396118164 0.445404052734375 33.08671188354492 0.446197509765625 33.08146667480469 C 0.446197509765625 33.08146667480469 0.4463043212890625 33.08076858520508 0.4463043212890625 33.08076858520508 C 0.4606781005859375 32.98636245727539 0.4753341674804688 32.89244079589844 0.490386962890625 32.79825592041016 C 0.4905853271484375 32.7969970703125 0.490234375 32.79918670654297 0.4904327392578125 32.79793167114258 C 0.49127197265625 32.79269790649414 0.4920578002929688 32.78778839111328 0.4928970336914062 32.78255462646484 C 0.4928970336914062 32.78255462646484 0.4929428100585938 32.78226852416992 0.4929428100585938 32.78226852416992 C 0.4937820434570312 32.77703475952148 0.49456787109375 32.77213668823242 0.4954071044921875 32.76690673828125 C 0.4954071044921875 32.76690673828125 0.4954605102539062 32.76654434204102 0.4954605102539062 32.76654434204102 C 0.4971466064453125 32.75608062744141 0.498779296875 32.74592590332031 0.5004730224609375 32.73546600341797 C 0.5004730224609375 32.73546600341797 0.5005035400390625 32.73526382446289 0.5005035400390625 32.73526382446289 C 0.9649429321289062 29.85893249511719 1.743919372558594 27.08807373046875 2.801071166992188 24.45883941650391 C 2.801071166992188 24.45883941650391 2.801101684570312 24.45875930786133 2.801101684570312 24.45875930786133 C 2.808670043945312 24.43993759155273 2.81640625 24.42074966430664 2.824005126953125 24.40193939208984 C 2.824005126953125 24.40193939208984 2.824333190917969 24.40113067626953 2.824333190917969 24.40113067626953 C 2.826255798339844 24.39635467529297 2.828018188476562 24.39200973510742 2.829948425292969 24.38723373413086 C 2.829948425292969 24.38723373413086 2.830009460449219 24.38707733154297 2.830009460449219 24.38707733154297 C 2.857048034667969 24.32021713256836 2.884223937988281 24.2535514831543 2.91162109375 24.1868782043457 C 2.91162109375 24.1868782043457 2.911720275878906 24.18663787841797 2.911720275878906 24.18663787841797 C 2.913673400878906 24.1818733215332 2.915374755859375 24.17774963378906 2.917327880859375 24.17298889160156 C 2.917327880859375 24.17298889160156 2.918075561523438 24.17117309570312 2.918075561523438 24.17117309570312 C 2.919670104980469 24.16730499267578 2.921607971191406 24.16259765625 2.923202514648438 24.15872955322266 C 2.923202514648438 24.15872955322266 2.923851013183594 24.15714645385742 2.923851013183594 24.15714645385742 C 2.925567626953125 24.15298080444336 2.927337646484375 24.14868545532227 2.929054260253906 24.1445198059082 C 2.929527282714844 24.14337539672852 2.929298400878906 24.14392471313477 2.929771423339844 24.14278030395508 C 2.931488037109375 24.13861465454102 2.933143615722656 24.13460159301758 2.934867858886719 24.13043975830078 C 2.935333251953125 24.12929534912109 2.935234069824219 24.12954330444336 2.935707092285156 24.12839889526367 C 2.937423706054688 24.12423324584961 2.938896179199219 24.12067794799805 2.94061279296875 24.11651229858398 C 2.941085815429688 24.11537170410156 2.941299438476562 24.11485290527344 2.9417724609375 24.11370849609375 C 2.943374633789062 24.10984039306641 2.944892883300781 24.10616302490234 2.946495056152344 24.10229873657227 C 2.946968078613281 24.10115432739258 2.94708251953125 24.10087966918945 2.947555541992188 24.09973526000977 C 2.949150085449219 24.09587097167969 2.950729370117188 24.09206390380859 2.952323913574219 24.08819961547852 C 2.952323913574219 24.08819961547852 2.953506469726562 24.08535385131836 2.953506469726562 24.08535385131836 C 2.954986572265625 24.081787109375 2.956695556640625 24.07766342163086 2.958168029785156 24.0740966796875 C 2.958168029785156 24.0740966796875 2.959365844726562 24.07121658325195 2.959365844726562 24.07121658325195 C 2.960845947265625 24.06764984130859 2.962478637695312 24.06370544433594 2.963958740234375 24.06013870239258 C 2.964431762695312 24.05899810791016 2.96484375 24.05802154541016 2.965316772460938 24.05687713623047 C 2.966796875 24.05331039428711 2.968544006347656 24.04910659790039 2.970024108886719 24.0455436706543 C 2.970497131347656 24.04439926147461 2.970542907714844 24.04428863525391 2.971015930175781 24.04314422607422 C 2.972625732421875 24.03928375244141 2.974266052246094 24.03533554077148 2.975868225097656 24.03147506713867 C 2.976348876953125 24.03033065795898 2.976516723632812 24.02993011474609 2.97698974609375 24.02878952026367 C 2.978591918945312 24.02492904663086 2.980110168457031 24.02129745483398 2.981712341308594 24.01743698120117 C 2.982192993164062 24.01629257202148 2.982406616210938 24.01577377319336 2.982879638671875 24.01463317871094 C 2.984367370605469 24.01107025146484 2.985984802246094 24.00718307495117 2.987472534179688 24.00362014770508 C 2.987945556640625 24.00247573852539 2.988365173339844 24.00147247314453 2.988845825195312 24.00033187866211 C 2.990455627441406 23.9964714050293 2.992149353027344 23.99240493774414 2.993759155273438 23.98854446411133 C 2.993759155273438 23.98854446411133 2.99456787109375 23.98661422729492 2.99456787109375 23.98661422729492 C 2.996177673339844 23.98275756835938 2.99810791015625 23.97813034057617 2.999717712402344 23.97427368164062 C 2.999717712402344 23.97427368164062 3.000503540039062 23.97239303588867 3.000503540039062 23.97239303588867 C 3.002243041992188 23.96823883056641 3.003929138183594 23.96420288085938 3.005668640136719 23.96004867553711 C 3.005668640136719 23.96004867553711 3.006416320800781 23.95825576782227 3.006416320800781 23.95825576782227 C 3.008155822753906 23.95410537719727 3.009574890136719 23.95070266723633 3.011314392089844 23.94654846191406 C 3.011795043945312 23.94540786743164 3.011940002441406 23.94507217407227 3.012413024902344 23.94392776489258 C 3.024345397949219 23.91545104980469 3.036048889160156 23.88759231567383 3.048042297363281 23.85914993286133 C 3.04852294921875 23.85800933837891 3.048149108886719 23.85890579223633 3.048629760742188 23.85776519775391 C 3.050498962402344 23.85332107543945 3.0521240234375 23.8494758605957 3.054000854492188 23.84503555297852 C 3.054000854492188 23.84503555297852 3.054794311523438 23.84315872192383 3.054794311523438 23.84315872192383 C 3.056419372558594 23.83930587768555 3.058197021484375 23.83509063720703 3.059822082519531 23.83124160766602 C 3.060302734375 23.83010101318359 3.060745239257812 23.82906341552734 3.061225891113281 23.82792282104492 C 3.062728881835938 23.82436752319336 3.0643310546875 23.82058715820312 3.065834045410156 23.81703186035156 C 3.066314697265625 23.81589508056641 3.066726684570312 23.81491851806641 3.067207336425781 23.81377792358398 C 3.068710327148438 23.81022644042969 3.070114135742188 23.80691909790039 3.071617126464844 23.80336761474609 C 3.072097778320312 23.80223083496094 3.073081970214844 23.79990005493164 3.073570251464844 23.79876327514648 C 3.074821472167969 23.79580307006836 3.076255798339844 23.79241180419922 3.0775146484375 23.78945159912109 C 3.077995300292969 23.78831481933594 3.079200744628906 23.78546905517578 3.079681396484375 23.78432846069336 C 3.080940246582031 23.78136825561523 3.082107543945312 23.77862548828125 3.083358764648438 23.77566528320312 C 3.083839416503906 23.77452850341797 3.085189819335938 23.77135467529297 3.085670471191406 23.77021408081055 C 3.086929321289062 23.76725769042969 3.088096618652344 23.76451873779297 3.089347839355469 23.76155853271484 C 3.090316772460938 23.75928497314453 3.0906982421875 23.75838851928711 3.091667175292969 23.75611114501953 C 3.092796325683594 23.75344848632812 3.094047546386719 23.7504997253418 3.095184326171875 23.74783706665039 C 3.096153259277344 23.74556350708008 3.096763610839844 23.7441291809082 3.097732543945312 23.74185180664062 C 3.098861694335938 23.73918914794922 3.099945068359375 23.73665618896484 3.10107421875 23.73399353027344 C 3.102043151855469 23.73171997070312 3.102828979492188 23.7298698425293 3.103797912597656 23.72759246826172 C 3.104812622070312 23.72522735595703 3.105857849121094 23.72275924682617 3.10687255859375 23.72039413452148 C 3.107841491699219 23.71812057495117 3.108779907226562 23.71590423583984 3.109748840332031 23.71363067626953 C 3.110763549804688 23.71126556396484 3.111923217773438 23.70853424072266 3.112937927246094 23.70616912841797 C 3.113906860351562 23.70389556884766 3.11474609375 23.70192718505859 3.115715026855469 23.69965362548828 C 3.116729736328125 23.69728851318359 3.117729187011719 23.69493865966797 3.118736267089844 23.69257354736328 C 3.119712829589844 23.69029998779297 3.1207275390625 23.68791198730469 3.1217041015625 23.68563842773438 C 3.122711181640625 23.68327331542969 3.12371826171875 23.6809196472168 3.124732971191406 23.67855453491211 C 3.125701904296875 23.6762809753418 3.126678466796875 23.67399597167969 3.127655029296875 23.67172241210938 C 3.128662109375 23.66935729980469 3.129631042480469 23.66711044311523 3.130638122558594 23.66474533081055 C 3.131614685058594 23.6624755859375 3.132614135742188 23.66012573242188 3.133590698242188 23.65785598754883 C 3.134605407714844 23.65549087524414 3.135696411132812 23.6529426574707 3.136711120605469 23.65057754516602 C 3.137680053710938 23.6483039855957 3.13861083984375 23.6461296081543 3.13958740234375 23.64385604858398 C 3.140602111816406 23.64149475097656 3.141448974609375 23.63952255249023 3.142463684082031 23.63715744018555 C 3.1439208984375 23.63375091552734 3.144134521484375 23.63325881958008 3.145599365234375 23.62985229492188 C 3.146614074707031 23.62749099731445 3.147377014160156 23.62570190429688 3.148391723632812 23.62334060668945 C 3.149856567382812 23.61993026733398 3.150123596191406 23.61931991577148 3.151588439941406 23.61590957641602 C 3.152473449707031 23.61384582519531 3.153450012207031 23.61157989501953 3.154335021972656 23.60951232910156 C 3.155311584472656 23.60723876953125 3.156532287597656 23.60439682006836 3.157508850097656 23.60212707519531 C 3.158523559570312 23.59976577758789 3.159255981445312 23.59807205200195 3.160270690917969 23.59571075439453 C 3.161247253417969 23.59344100952148 3.162612915039062 23.59026336669922 3.163597106933594 23.58799362182617 C 3.164360046386719 23.58622360229492 3.164863586425781 23.58504867553711 3.165626525878906 23.58327865600586 C 3.167091369628906 23.57987213134766 3.168113708496094 23.5775032043457 3.169578552246094 23.5740966796875 C 3.170089721679688 23.57291793823242 3.170722961425781 23.57144546508789 3.171234130859375 23.57026672363281 C 3.172698974609375 23.56686019897461 3.174095153808594 23.56362915039062 3.175567626953125 23.56022262573242 C 3.175689697265625 23.55992889404297 3.175727844238281 23.55985260009766 3.175849914550781 23.55955505371094 C 3.183692932128906 23.54139709472656 3.190635681152344 23.52534484863281 3.198493957519531 23.50719833374023 C 3.198753356933594 23.50661087036133 3.198928833007812 23.50620651245117 3.199180603027344 23.505615234375 C 3.200653076171875 23.50221252441406 3.202545166015625 23.49785614013672 3.204025268554688 23.49445343017578 C 3.20440673828125 23.49356842041016 3.20477294921875 23.49271774291992 3.205154418945312 23.4918327331543 C 3.206634521484375 23.48843383789062 3.208450317382812 23.48424530029297 3.209930419921875 23.48084259033203 C 3.210311889648438 23.47996139526367 3.210746765136719 23.47895812988281 3.211128234863281 23.47807693481445 C 3.212608337402344 23.47467422485352 3.214179992675781 23.47105407714844 3.215660095214844 23.46765518188477 C 3.216171264648438 23.46647644042969 3.216621398925781 23.46543502807617 3.217132568359375 23.46425628662109 C 3.218612670898438 23.46085739135742 3.220268249511719 23.45704650878906 3.221748352050781 23.45364379882812 C 3.222267150878906 23.45246887207031 3.222564697265625 23.45177459716797 3.223075866699219 23.45059967041016 C 3.224555969238281 23.44719696044922 3.226043701171875 23.44378280639648 3.227523803710938 23.44038391113281 C 3.228034973144531 23.43920516967773 3.228614807128906 23.43788528442383 3.2291259765625 23.43671035766602 C 3.230606079101562 23.43331146240234 3.232154846191406 23.42975997924805 3.233634948730469 23.42636108398438 C 3.234146118164062 23.4251823425293 3.23455810546875 23.42424011230469 3.235069274902344 23.42306518554688 C 3.236557006835938 23.4196662902832 3.237945556640625 23.41647720336914 3.239433288574219 23.41307830810547 C 3.240074157714844 23.41160583496094 3.240516662597656 23.41058731079102 3.241157531738281 23.40911865234375 C 3.242645263671875 23.40571975708008 3.244056701660156 23.40248107910156 3.24554443359375 23.39908599853516 C 3.246055603027344 23.39790725708008 3.246566772460938 23.396728515625 3.247085571289062 23.39555358886719 C 3.248565673828125 23.39215469360352 3.249969482421875 23.38894653320312 3.251457214355469 23.38555145263672 C 3.252098083496094 23.38407897949219 3.25250244140625 23.38315582275391 3.253150939941406 23.38168334960938 C 3.255126953125 23.37715530395508 3.255638122558594 23.37600326538086 3.257614135742188 23.37147521972656 C 3.258132934570312 23.37030029296875 3.258522033691406 23.36940765380859 3.259040832519531 23.36822891235352 C 3.261024475097656 23.36370086669922 3.261604309082031 23.36237335205078 3.263587951660156 23.35784912109375 C 3.264106750488281 23.35667037963867 3.264549255371094 23.35565567016602 3.265068054199219 23.3544807434082 C 3.266555786132812 23.3510856628418 3.268272399902344 23.34716796875 3.269760131835938 23.34377288818359 C 3.270149230957031 23.34289169311523 3.2705078125 23.34206771850586 3.270896911621094 23.3411865234375 C 3.272880554199219 23.3366584777832 3.273765563964844 23.33464813232422 3.275749206542969 23.33012390136719 C 3.276138305664062 23.32924270629883 3.2764892578125 23.32844924926758 3.276878356933594 23.32756805419922 C 3.278861999511719 23.32304382324219 3.280006408691406 23.32044219970703 3.281997680664062 23.31591796875 C 3.282257080078125 23.31533050537109 3.282257080078125 23.31531524658203 3.282516479492188 23.31472778320312 C 3.284507751464844 23.31020355224609 3.286033630371094 23.30673980712891 3.28802490234375 23.30221557617188 C 3.288154602050781 23.30192184448242 3.288291931152344 23.30161285400391 3.288421630859375 23.30131912231445 C 3.292404174804688 23.29227447509766 3.296119689941406 23.28384017944336 3.30010986328125 23.27479934692383 C 3.30010986328125 23.27479934692383 3.300117492675781 23.27477645874023 3.300117492675781 23.27477645874023 C 3.301612854003906 23.27138519287109 3.303665161132812 23.2667350769043 3.305160522460938 23.26334381103516 C 3.528495788574219 22.75868988037109 4.118507385253906 22.53033065795898 4.62347412109375 22.75324630737305 C 5.128715515136719 22.9763069152832 5.357467651367188 23.56670761108398 5.134414672851562 24.07194137573242 C 3.0545654296875 28.78300094604492 2 33.8055305480957 2 39 C 2 43.99584579467773 2.977996826171875 48.84120178222656 4.906822204589844 53.40144729614258 C 6.770271301269531 57.8071403503418 9.438385009765625 61.7642822265625 12.83704376220703 65.16294097900391 C 16.2357063293457 68.56161499023438 20.19284820556641 71.22972869873047 24.59854125976562 73.09317779541016 C 29.15879821777344 75.02200317382812 34.00415420532227 76 39 76 C 43.99584579467773 76 48.84120178222656 75.02200317382812 53.40144729614258 73.09317779541016 C 57.8071403503418 71.22972106933594 61.7642822265625 68.56161499023438 65.16294097900391 65.16294097900391 C 68.56161499023438 61.7642822265625 71.22972106933594 57.8071403503418 73.09317779541016 53.40144729614258 C 75.02200317382812 48.84120178222656 76 43.99584579467773 76 39 C 76 34.00415420532227 75.02200317382812 29.15879821777344 73.09317779541016 24.59854125976562 C 71.22972869873047 20.19284820556641 68.56161499023438 16.2357063293457 65.16294097900391 12.83704376220703 C 61.7642822265625 9.438385009765625 57.8071403503418 6.770271301269531 53.40144729614258 4.906822204589844 C 48.84120178222656 2.977996826171875 43.99584579467773 2 39 2 C 38.44771575927734 2 38 1.552284240722656 38 1 C 38 0.4477157592773438 38.44771575927734 0 39 0 C 39 0 39 0 39 0 Z" stroke="none" fill="#52abdc"/>
    </g>
    <g id="Group_26" data-name="Group 26" transform="translate(21.462 19.529)">
      <g id="Group_13" data-name="Group 13" clip-path="url(#clip-path)">
        <path id="Path_38" data-name="Path 38" d="M28.619,36.284H6.735A6.612,6.612,0,0,1,0,29.819V6.466A6.612,6.612,0,0,1,6.735,0H28.619a6.612,6.612,0,0,1,6.735,6.466V29.819a6.612,6.612,0,0,1-6.735,6.465M6.735,2.164a4.4,4.4,0,0,0-4.481,4.3V29.819a4.4,4.4,0,0,0,4.481,4.3H28.619a4.4,4.4,0,0,0,4.481-4.3V6.466a4.4,4.4,0,0,0-4.481-4.3Z" transform="translate(-0.094 1.141)" fill="#52abdc"/>
        <path id="Path_39" data-name="Path 39" d="M92.184,98.764h-.013a3.57,3.57,0,1,1,0-7.128H92.2a3.57,3.57,0,1,1,0,7.128h-.013m0-5.7A2.144,2.144,0,1,0,94.438,95.2a2.108,2.108,0,0,0-2.254-2.141" transform="translate(-81.117 -83.151)" fill="#52abdc"/>
        <path id="Path_40" data-name="Path 40" d="M74.07,194.528h-10.2a.745.745,0,0,1-.761-.649,5.55,5.55,0,0,1,2.681-5.6,6.575,6.575,0,0,1,6.364,0,5.548,5.548,0,0,1,2.679,5.6.745.745,0,0,1-.761.649M64.6,193.1h8.738a4,4,0,0,0-1.989-3.615,4.918,4.918,0,0,0-4.76,0A4,4,0,0,0,64.6,193.1" transform="translate(-57.901 -171.293)" fill="#52abdc"/>
        <path id="Path_41" data-name="Path 41" d="M249.729,95.572h-9.165a.882.882,0,1,1,0-1.763h9.165a.882.882,0,1,1,0,1.763" transform="translate(-219.734 -85.15)" fill="#52abdc"/>
        <path id="Path_42" data-name="Path 42" d="M249.729,147.133h-9.165a.882.882,0,1,1,0-1.763h9.165a.882.882,0,1,1,0,1.763" transform="translate(-219.734 -132.579)" fill="#52abdc"/>
        <path id="Path_43" data-name="Path 43" d="M289.1,198.694h-5.578a.882.882,0,1,1,0-1.763H289.1a.882.882,0,1,1,0,1.763" transform="translate(-259.104 -180.008)" fill="#52abdc"/>
        <path id="Path_44" data-name="Path 44" d="M77.814,300.341H52.99a.882.882,0,1,1,0-1.763H77.814a.882.882,0,1,1,0,1.763" transform="translate(-47.819 -273.51)" fill="#52abdc"/>
        <path id="Path_45" data-name="Path 45" d="M77.814,351.9H52.99a.882.882,0,1,1,0-1.763H77.814a.882.882,0,1,1,0,1.763" transform="translate(-47.819 -320.939)" fill="#52abdc"/>
        <path id="Path_46" data-name="Path 46" d="M267.432,247.729h-7.552a.882.882,0,1,1,0-1.763h7.552a.882.882,0,1,1,0,1.763" transform="translate(-237.436 -225.114)" fill="#52abdc"/>
      </g>
    </g>
  </g>
</svg>
