<svg xmlns="http://www.w3.org/2000/svg" xmlns:xlink="http://www.w3.org/1999/xlink" width="21" height="21" viewBox="0 0 21 21">
  <defs>
    <clipPath id="clip-path">
      <rect id="Rectangle_8" data-name="Rectangle 8" width="21" height="21" transform="translate(0 0.132)" fill="none"/>
    </clipPath>
  </defs>
  <g id="Group_12" data-name="Group 12" transform="translate(0 -0.132)">
    <g id="Group_11" data-name="Group 11" clip-path="url(#clip-path)">
      <path id="Path_35" data-name="Path 35" d="M222.7,117.771a.836.836,0,1,1-.836.836.836.836,0,0,1,.836-.836" transform="translate(-209.364 -111.153)" fill="#fff"/>
      <path id="Path_36" data-name="Path 36" d="M80.769,71.9a7.622,7.622,0,0,0-1.643-2.584,7.446,7.446,0,0,0-2.565-1.611,2.1,2.1,0,0,0-2.228.472l-2.052,2.042a2.09,2.09,0,0,0-.436,2.318c.108.242.225.479.35.708l-4.5,4.5a.522.522,0,0,0-.153.369v2.3a.522.522,0,0,0,.522.522h2.3a.522.522,0,0,0,.522-.522v-.94h.94a.522.522,0,0,0,.522-.522v-.94h.94a.522.522,0,0,0,0-1.045H71.823a.522.522,0,0,0-.522.522v.94h-.94a.522.522,0,0,0-.522.522v.94H68.584v-1.56L73.217,73.7a.522.522,0,0,0,.077-.64,8.452,8.452,0,0,1-.494-.948,1.04,1.04,0,0,1,.219-1.152l2.051-2.042a1.054,1.054,0,0,1,1.118-.237,6.4,6.4,0,0,1,2.2,1.375A6.572,6.572,0,0,1,79.8,72.285a1.037,1.037,0,0,1-.234,1.115l-2.076,2.067a1.052,1.052,0,0,1-1.15.224,6.776,6.776,0,0,1-.94-.48.522.522,0,0,0-.547.891,7.826,7.826,0,0,0,1.086.554,2.094,2.094,0,0,0,2.288-.448L80.3,74.141a2.082,2.082,0,0,0,.47-2.238" transform="translate(-63.709 -63.773)" fill="#fff"/>
      <path id="Path_37" data-name="Path 37" d="M20.965,14.975v2.246a3.748,3.748,0,0,1-3.744,3.744H14.975a.749.749,0,0,1,0-1.5h2.246a2.249,2.249,0,0,0,2.246-2.246V14.975a.749.749,0,0,1,1.5,0M17.221,0H14.975a.749.749,0,1,0,0,1.5h2.246a2.249,2.249,0,0,1,2.246,2.246V5.99a.749.749,0,0,0,1.5,0V3.744A3.748,3.748,0,0,0,17.221,0M5.99,19.467H3.744A2.249,2.249,0,0,1,1.5,17.221V14.975a.749.749,0,0,0-1.5,0v2.246a3.748,3.748,0,0,0,3.744,3.744H5.99a.749.749,0,0,0,0-1.5M5.99,0H3.744A3.748,3.748,0,0,0,0,3.744V5.99a.749.749,0,0,0,1.5,0V3.744A2.249,2.249,0,0,1,3.744,1.5H5.99a.749.749,0,1,0,0-1.5" transform="translate(0.035 0)" fill="#fff"/>
    </g>
  </g>
</svg>
