<svg id="Group_4" data-name="Group 4" xmlns="http://www.w3.org/2000/svg" xmlns:xlink="http://www.w3.org/1999/xlink" width="23" height="23" viewBox="0 0 23 23">
  <defs>
    <clipPath id="clip-path">
      <rect id="Rectangle_4" data-name="Rectangle 4" width="23" height="23" fill="none"/>
    </clipPath>
  </defs>
  <g id="Group_3" data-name="Group 3" clip-path="url(#clip-path)">
    <path id="Path_3" data-name="Path 3" d="M287.267,70.687h0a.693.693,0,0,1-.693-.693c0-.134,0-13.208,0-13.653a1.729,1.729,0,0,0-1.242-1.82,9.486,9.486,0,0,0-3.066-.228c-.447.013-.869.025-1.264.013a.693.693,0,0,1,.039-1.385c.356.01.76,0,1.186-.013a10.428,10.428,0,0,1,3.555.3,3.122,3.122,0,0,1,2.177,3.1h0q0,.03,0,.062V69.994a.693.693,0,0,1-.693.693" transform="translate(-267.569 -50.634)" fill="#fff"/>
    <path id="Path_4" data-name="Path 4" d="M71.538,73.3H60.409A3.413,3.413,0,0,1,57,69.891V56.222c0-.007,0-.015,0-.022a3.12,3.12,0,0,1,2.187-3.1,10.521,10.521,0,0,1,3.571-.3c.433.012.842.024,1.2.014A.693.693,0,0,1,64,54.2c-.4.012-.827,0-1.28-.014a9.584,9.584,0,0,0-3.084.227,1.728,1.728,0,0,0-1.25,1.821V69.891a2.025,2.025,0,0,0,2.023,2.023h11.13a2.025,2.025,0,0,0,2.023-2.023.693.693,0,1,1,1.386,0A3.413,3.413,0,0,1,71.538,73.3" transform="translate(-54.556 -50.531)" fill="#fff"/>
    <path id="Path_5" data-name="Path 5" d="M200.535,13.633h-.011a2.256,2.256,0,0,1-1.679-.681c-.873-.932-.8-2.514-.728-3.91a9.7,9.7,0,0,0,.01-1.372.6.6,0,0,1,.6-.669h3.621a.6.6,0,0,1,.6.669,9.682,9.682,0,0,0,.01,1.367c.068,1.4.145,2.984-.729,3.917a2.253,2.253,0,0,1-1.678.679h-.01M199.35,8.2c0,.283-.017.586-.032.9-.054,1.1-.12,2.47.4,3.031a1.25,1.25,0,0,0,1.624,0c.527-.562.46-1.935.406-3.038-.015-.311-.03-.613-.032-.894Z" transform="translate(-189.119 -6.866)" fill="#fff"/>
    <path id="Path_6" data-name="Path 6" d="M194.612,182.808H194.6a2.777,2.777,0,0,1,0-5.553h.019a2.777,2.777,0,0,1,0,5.553h-.009m0-4.444a1.668,1.668,0,1,0,1.636,1.668,1.588,1.588,0,0,0-1.636-1.668" transform="translate(-183.193 -169.256)" fill="#fff"/>
    <path id="Path_7" data-name="Path 7" d="M166.618,312.26h-7.407a.554.554,0,0,1-.552-.506,4.432,4.432,0,0,1,1.946-4.364,4.491,4.491,0,0,1,4.62,0,4.43,4.43,0,0,1,1.945,4.363.554.554,0,0,1-.552.505m-6.875-1.109h6.344a3.171,3.171,0,0,0-1.444-2.816,3.359,3.359,0,0,0-3.455,0,3.172,3.172,0,0,0-1.444,2.817" transform="translate(-151.496 -292.771)" fill="#fff"/>
  </g>
</svg>
