<svg xmlns="http://www.w3.org/2000/svg" xmlns:xlink="http://www.w3.org/1999/xlink" width="23" height="23" viewBox="0 0 23 23">
  <defs>
    <clipPath id="clip-path">
      <rect id="Rectangle_7" data-name="Rectangle 7" width="23" height="23" transform="translate(0 0.202)" fill="none"/>
    </clipPath>
  </defs>
  <g id="Group_10" data-name="Group 10" transform="translate(0 -0.202)">
    <g id="Group_9" data-name="Group 9" clip-path="url(#clip-path)">
      <path id="Path_32" data-name="Path 32" d="M173.369,184.938a.745.745,0,0,1-.537-.232l-2.171-2.264a.817.817,0,0,1,0-1.121.738.738,0,0,1,1.071,0l1.6,1.674,3.372-3.908a.739.739,0,0,1,1.073-.062.817.817,0,0,1,.06,1.119l0,0-3.908,4.528a.751.751,0,0,1-.545.262Z" transform="translate(-162.737 -170.394)" fill="#fff"/>
      <path id="Path_33" data-name="Path 33" d="M8.594,23a2.035,2.035,0,0,1-.649-.1,3.652,3.652,0,0,1-1.752-1.753,3.958,3.958,0,0,0-.74-.979,3.737,3.737,0,0,0-1.137-.441A3.527,3.527,0,0,1,2.2,18.538a3.837,3.837,0,0,1-.425-2.455A4.228,4.228,0,0,0,1.717,14.8a3.9,3.9,0,0,0-.652-1.012A3.822,3.822,0,0,1,0,11.487a3.822,3.822,0,0,1,1.065-2.3,3.9,3.9,0,0,0,.652-1.012,4.228,4.228,0,0,0,.054-1.281A3.837,3.837,0,0,1,2.2,4.436,3.526,3.526,0,0,1,4.318,3.25,3.738,3.738,0,0,0,5.455,2.81a3.933,3.933,0,0,0,.739-.978A3.643,3.643,0,0,1,7.945.078a3.392,3.392,0,0,1,2.344.335A3.8,3.8,0,0,0,11.5.761,3.8,3.8,0,0,0,12.711.414,3.427,3.427,0,0,1,15.054.077,3.652,3.652,0,0,1,16.806,1.83a3.959,3.959,0,0,0,.74.979,3.737,3.737,0,0,0,1.137.441A3.527,3.527,0,0,1,20.8,4.436a3.837,3.837,0,0,1,.425,2.455,4.228,4.228,0,0,0,.054,1.281,3.9,3.9,0,0,0,.652,1.012A3.822,3.822,0,0,1,23,11.487a3.822,3.822,0,0,1-1.065,2.3,3.9,3.9,0,0,0-.652,1.012,4.228,4.228,0,0,0-.054,1.281,3.837,3.837,0,0,1-.426,2.455,3.526,3.526,0,0,1-2.121,1.186,3.738,3.738,0,0,0-1.137.441,3.933,3.933,0,0,0-.739.978A3.643,3.643,0,0,1,15.055,22.9a3.4,3.4,0,0,1-2.344-.335,3.806,3.806,0,0,0-1.211-.348,3.806,3.806,0,0,0-1.211.348A4.715,4.715,0,0,1,8.594,23m0-21.441a.565.565,0,0,0-.183.027c-.328.11-.642.617-.945,1.106a4.972,4.972,0,0,1-1.121,1.4,4.714,4.714,0,0,1-1.638.689,2.545,2.545,0,0,0-1.286.588,2.815,2.815,0,0,0-.137,1.443,5.326,5.326,0,0,1-.126,1.849,4.957,4.957,0,0,1-.919,1.524,2.735,2.735,0,0,0-.724,1.3,2.735,2.735,0,0,0,.724,1.3,4.957,4.957,0,0,1,.919,1.524,5.33,5.33,0,0,1,.126,1.85,2.805,2.805,0,0,0,.137,1.442,2.537,2.537,0,0,0,1.286.587,4.734,4.734,0,0,1,1.638.69,4.963,4.963,0,0,1,1.121,1.4c.3.489.617.995.945,1.106a2.543,2.543,0,0,0,1.332-.31,4.8,4.8,0,0,1,1.753-.452,4.8,4.8,0,0,1,1.753.452,2.481,2.481,0,0,0,1.332.309c.328-.11.642-.617.945-1.106a4.973,4.973,0,0,1,1.121-1.4,4.714,4.714,0,0,1,1.638-.689,2.546,2.546,0,0,0,1.286-.588,2.815,2.815,0,0,0,.137-1.443,5.325,5.325,0,0,1,.126-1.849,4.956,4.956,0,0,1,.919-1.524,2.735,2.735,0,0,0,.724-1.3,2.735,2.735,0,0,0-.724-1.3,4.957,4.957,0,0,1-.919-1.524,5.33,5.33,0,0,1-.126-1.85,2.805,2.805,0,0,0-.137-1.442,2.537,2.537,0,0,0-1.286-.587,4.733,4.733,0,0,1-1.638-.69,4.964,4.964,0,0,1-1.121-1.4c-.3-.489-.617-.995-.945-1.106a2.552,2.552,0,0,0-1.332.31,4.8,4.8,0,0,1-1.753.452,4.8,4.8,0,0,1-1.753-.452A3.729,3.729,0,0,0,8.6,1.559Z" transform="translate(0 0)" fill="#fff"/>
      <path id="Path_34" data-name="Path 34" d="M99.315,96.5a7.668,7.668,0,0,1,0-15.322,7.347,7.347,0,0,1,6.764,4.679.805.805,0,0,1-.405,1.038.749.749,0,0,1-.995-.421,5.745,5.745,0,0,0-7.636-3.241,6.178,6.178,0,0,0-3.108,7.964,5.745,5.745,0,0,0,7.636,3.241,6.09,6.09,0,0,0,3.566-5.6.761.761,0,1,1,1.52,0A7.517,7.517,0,0,1,99.315,96.5" transform="translate(-87.815 -77.349)" fill="#fff"/>
    </g>
  </g>
</svg>
