<svg id="Group_6" data-name="Group 6" xmlns="http://www.w3.org/2000/svg" xmlns:xlink="http://www.w3.org/1999/xlink" width="24.752" height="20.586" viewBox="0 0 24.752 20.586">
  <defs>
    <clipPath id="clip-path">
      <rect id="Rectangle_5" data-name="Rectangle 5" width="24.752" height="20.586" fill="none"/>
    </clipPath>
  </defs>
  <g id="Group_5" data-name="Group 5" clip-path="url(#clip-path)">
    <path id="Path_8" data-name="Path 8" d="M29.174,101.66a2.109,2.109,0,1,1,0-4.216,2.108,2.108,0,1,1,0,4.216m0-2.92a.813.813,0,1,0,0,1.623.811.811,0,1,0,0-1.623" transform="translate(-25.557 -92.179)" fill="#fff"/>
    <path id="Path_9" data-name="Path 9" d="M6.536,182.712H.648A.648.648,0,0,1,0,182.064a3.592,3.592,0,0,1,7.185,0,.648.648,0,0,1-.648.648m-5.139-1.3h4.4a2.275,2.275,0,0,0-2.177-1.623A2.352,2.352,0,0,0,1.4,181.416" transform="translate(0 -168.851)" fill="#fff"/>
    <path id="Path_10" data-name="Path 10" d="M354.235,101.66a2.108,2.108,0,0,1,0-4.216,2.109,2.109,0,1,1,0,4.216m0-2.92a.811.811,0,0,0,0,1.623.813.813,0,1,0,0-1.623" transform="translate(-333.1 -92.179)" fill="#fff"/>
    <path id="Path_11" data-name="Path 11" d="M331.645,182.712h-5.888a.648.648,0,0,1-.648-.648,3.592,3.592,0,0,1,7.185,0,.648.648,0,0,1-.648.648m-5.145-1.3h4.4a2.352,2.352,0,0,0-2.22-1.623,2.275,2.275,0,0,0-2.177,1.623" transform="translate(-307.542 -168.851)" fill="#fff"/>
    <path id="Path_12" data-name="Path 12" d="M179.351,103.12a2.838,2.838,0,1,1,2.838-2.838,2.841,2.841,0,0,1-2.838,2.838m0-4.38a1.541,1.541,0,1,0,1.541,1.541,1.543,1.543,0,0,0-1.541-1.541" transform="translate(-166.975 -92.179)" fill="#fff"/>
    <path id="Path_13" data-name="Path 13" d="M157.443,211.19h-7.3a.648.648,0,0,1-.648-.648v-.73a4.3,4.3,0,0,1,8.6,0v.73a.648.648,0,0,1-.648.648m-6.651-1.3h6v-.082a3,3,0,0,0-6,0Z" transform="translate(-141.417 -194.409)" fill="#fff"/>
    <path id="Path_14" data-name="Path 14" d="M293.013,1.5h-1.531a.51.51,0,1,0,0,1.021h1.531a1.533,1.533,0,0,1,1.531,1.531V5.584a.51.51,0,0,0,1.021,0V4.052A2.555,2.555,0,0,0,293.013,1.5" transform="translate(-275.249 -1.419)" fill="#fff"/>
    <path id="Path_15" data-name="Path 15" d="M293.637,4.757a.592.592,0,0,1-.592-.592V2.634a1.452,1.452,0,0,0-1.45-1.45h-1.532a.592.592,0,0,1,0-1.183H291.6a2.636,2.636,0,0,1,2.633,2.634V4.165a.592.592,0,0,1-.592.592M290.063.162a.429.429,0,0,0,0,.859H291.6a1.614,1.614,0,0,1,1.613,1.613V4.165a.429.429,0,0,0,.859,0V2.634A2.474,2.474,0,0,0,291.6.162Z" transform="translate(-273.831)" fill="#fff"/>
    <path id="Path_16" data-name="Path 16" d="M295.566,296.505v-1.531a.51.51,0,0,0-1.021,0v1.531a1.533,1.533,0,0,1-1.531,1.531h-1.532a.511.511,0,0,0,0,1.021h1.532a2.555,2.555,0,0,0,2.552-2.552" transform="translate(-275.25 -278.552)" fill="#fff"/>
    <path id="Path_17" data-name="Path 17" d="M291.6,297.721h-1.532a.592.592,0,0,1,0-1.183H291.6a1.452,1.452,0,0,0,1.45-1.45v-1.532a.592.592,0,0,1,1.183,0v1.532a2.636,2.636,0,0,1-2.633,2.634m-1.532-1.021a.429.429,0,0,0,0,.859H291.6a2.474,2.474,0,0,0,2.471-2.471v-1.532a.429.429,0,0,0-.859,0v1.532A1.614,1.614,0,0,1,291.6,296.7Z" transform="translate(-273.831 -277.134)" fill="#fff"/>
    <path id="Path_18" data-name="Path 18" d="M93.952,4.053V5.585a.51.51,0,1,0,1.021,0V4.053A1.533,1.533,0,0,1,96.5,2.522h1.532a.51.51,0,0,0,0-1.021H96.5a2.555,2.555,0,0,0-2.552,2.552" transform="translate(-88.875 -1.42)" fill="#fff"/>
    <path id="Path_19" data-name="Path 19" d="M93.044,4.757a.592.592,0,0,1-.592-.592V2.634A2.636,2.636,0,0,1,95.085,0h1.531a.592.592,0,0,1,0,1.183H95.085a1.452,1.452,0,0,0-1.45,1.45V4.165a.592.592,0,0,1-.592.592M95.085.162a2.474,2.474,0,0,0-2.471,2.471V4.165a.429.429,0,0,0,.859,0V2.634a1.614,1.614,0,0,1,1.613-1.613h1.531a.429.429,0,1,0,0-.859Z" transform="translate(-87.457)" fill="#fff"/>
    <path id="Path_20" data-name="Path 20" d="M96.5,299.058h1.531a.51.51,0,1,0,0-1.021H96.5a1.533,1.533,0,0,1-1.531-1.531v-1.531a.51.51,0,0,0-1.021,0v1.531a2.555,2.555,0,0,0,2.552,2.552" transform="translate(-88.875 -278.553)" fill="#fff"/>
    <path id="Path_21" data-name="Path 21" d="M96.617,297.721H95.085a2.636,2.636,0,0,1-2.633-2.633v-1.532a.592.592,0,0,1,1.183,0v1.532a1.452,1.452,0,0,0,1.45,1.45h1.531a.592.592,0,1,1,0,1.183m-3.573-4.594a.43.43,0,0,0-.429.429v1.532a2.474,2.474,0,0,0,2.471,2.471h1.531a.429.429,0,1,0,0-.859H95.085a1.614,1.614,0,0,1-1.613-1.612v-1.532a.43.43,0,0,0-.429-.429" transform="translate(-87.457 -277.134)" fill="#fff"/>
  </g>
</svg>
