<svg id="Group_207" data-name="Group 207" xmlns="http://www.w3.org/2000/svg" xmlns:xlink="http://www.w3.org/1999/xlink" width="134.914" height="92.018" viewBox="0 0 134.914 92.018">
  <defs>
    <clipPath id="clip-path">
      <rect id="Rectangle_49" data-name="Rectangle 49" width="134.914" height="92.018" fill="none"/>
    </clipPath>
    <clipPath id="clip-path-2">
      <path id="Path_112" data-name="Path 112" d="M68.415,38.79a20.275,20.275,0,0,0,20.149,20.3v-11.7a8.6,8.6,0,0,1,0-17.193V18.49a20.3,20.3,0,0,0-20.149,20.3m58-38.79V38.67a8.762,8.762,0,1,1-17.525,0V0H97.824V20.783a19.58,19.58,0,0,0-9.26-2.292v11.7a8.6,8.6,0,0,1,0,17.193v11.7a20,20,0,0,0,14.72-6.454,19.7,19.7,0,0,0,28.836-.061A20.025,20.025,0,0,0,146.9,59.09a20.269,20.269,0,0,0,20.059-18.279H155.2a8.619,8.619,0,1,1-.211-4.735h11.884A20.277,20.277,0,0,0,146.9,18.49a19.877,19.877,0,0,0-9.411,2.353V0Z" transform="translate(-68.415)" fill="none"/>
    </clipPath>
  </defs>
  <g id="Group_202" data-name="Group 202">
    <g id="Group_201" data-name="Group 201" clip-path="url(#clip-path)">
      <path id="Path_109" data-name="Path 109" d="M133.5,9.613V48.464a8.688,8.688,0,1,1-17.374,0V9.613H105.149V30.486a19.671,19.671,0,0,0-9.17-2.292V39.958a8.644,8.644,0,0,1,0,17.283V69a19.633,19.633,0,0,0,14.569-6.485,19.366,19.366,0,0,0,28.595-.06A19.784,19.784,0,0,0,153.8,69a20.217,20.217,0,0,0,19.878-18.37H162.007a8.61,8.61,0,1,1-.181-4.766H173.59A20.193,20.193,0,0,0,153.8,28.194a19.449,19.449,0,0,0-9.321,2.383V9.613ZM95.979,28.194h0a20.41,20.41,0,0,0,0,40.811V57.241a8.644,8.644,0,0,1,0-17.283Z" transform="translate(-56.694 -7.17)" fill="#00a1ed"/>
      <path id="Path_110" data-name="Path 110" d="M126.419,0V38.67a8.762,8.762,0,1,1-17.525,0V0H97.824V20.783a19.583,19.583,0,0,0-9.26-2.292v11.7a8.6,8.6,0,0,1,0,17.193v11.7a20,20,0,0,0,14.72-6.454,19.7,19.7,0,0,0,28.836-.06A20.025,20.025,0,0,0,146.9,59.09a20.269,20.269,0,0,0,20.059-18.279H155.2a8.619,8.619,0,1,1-.211-4.735h11.884A20.277,20.277,0,0,0,146.9,18.49a19.876,19.876,0,0,0-9.411,2.353V0ZM88.564,18.49h0a20.3,20.3,0,0,0,0,40.6v-11.7a8.6,8.6,0,0,1,0-17.193Z" transform="translate(-51.028)" fill="#a9e0fa"/>
    </g>
  </g>
  <g id="Group_204" data-name="Group 204" transform="translate(17.387)">
    <g id="Group_203" data-name="Group 203" clip-path="url(#clip-path-2)">
      <path id="Path_111" data-name="Path 111" d="M160.393,104.8l-22.2,12.427-21.145,2.292h-8.687l-31.309.513-18.1-10.678L56.9,129.206l7.933,12.307,23.588,5.671,35.895-1.3,27.177-3.077,17.947-13.362Z" transform="translate(-59.828 -78.169)" fill="#54c7f5"/>
    </g>
  </g>
  <g id="Group_206" data-name="Group 206">
    <g id="Group_205" data-name="Group 205" clip-path="url(#clip-path)">
      <text id="Diyar_United_Company" data-name="Diyar United Company" transform="translate(0 74.504)" fill="#fff" font-size="11" font-family="Arial-BoldMT, Arial" font-weight="700"><tspan x="0" y="0">Diyar United Company</tspan></text>
      <text id="PARTNERS_IN_TECHNOLOGY" data-name="PARTNERS IN TECHNOLOGY" transform="translate(0.239 88.674)" fill="#fff" font-size="8" font-family="ArialMT, Arial"><tspan x="0" y="0" letter-spacing="0.025em">P</tspan><tspan y="0" letter-spacing="0.1em">A</tspan><tspan y="0" letter-spacing="0.081em">R</tspan><tspan y="0" letter-spacing="0.1em">T</tspan><tspan y="0" letter-spacing="0.099em">N</tspan><tspan y="0" letter-spacing="0.1em">E</tspan><tspan y="0" letter-spacing="0.099em">R</tspan><tspan y="0" letter-spacing="0.1em">S</tspan><tspan y="0" letter-spacing="0.099em"> </tspan><tspan y="0" letter-spacing="0.1em">I</tspan><tspan y="0" letter-spacing="0.099em">N</tspan><tspan y="0" letter-spacing="0.082em"> </tspan><tspan y="0" letter-spacing="0.1em">TE</tspan><tspan y="0" letter-spacing="0.099em">CHN</tspan><tspan y="0" letter-spacing="0.1em">O</tspan><tspan y="0" letter-spacing="0.099em">L</tspan><tspan y="0" letter-spacing="0.1em">OG</tspan><tspan y="0">Y</tspan></text>
    </g>
  </g>
</svg>
