<svg xmlns="http://www.w3.org/2000/svg" width="24.477" height="31.82" viewBox="0 0 24.477 31.82">
  <path id="Icon_ionic-ios-lock" data-name="Icon ionic-ios-lock" d="M28.167,14.39H26.331V10.817a7.343,7.343,0,1,0-14.686-.1V14.39H9.81a3.069,3.069,0,0,0-3.06,3.06V32.135a3.069,3.069,0,0,0,3.06,3.06H28.167a3.069,3.069,0,0,0,3.06-3.06V17.449A3.069,3.069,0,0,0,28.167,14.39Zm-8.108,9.546V29.2a1.1,1.1,0,0,1-1.017,1.1,1.072,1.072,0,0,1-1.124-1.071V23.935a2.448,2.448,0,1,1,2.142,0Zm4.13-9.546h-10.4V10.718a5.2,5.2,0,0,1,10.4,0Z" transform="translate(-6.75 -3.374)" fill="#b9c4e2"/>
</svg>
