<svg xmlns="http://www.w3.org/2000/svg" width="18.163" height="18.163" viewBox="0 0 18.163 18.163">
  <path id="Icon_metro-earth" data-name="Icon metro-earth" d="M11.652,1.928a9.081,9.081,0,1,0,9.081,9.081,9.081,9.081,0,0,0-9.081-9.081Zm0,17.027a7.919,7.919,0,0,1-3.144-.647l4.135-4.652a.568.568,0,0,0,.143-.377v-1.7a.568.568,0,0,0-.568-.568c-2,0-4.119-2.083-4.139-2.1a.567.567,0,0,0-.4-.166H5.409a.568.568,0,0,0-.568.568v3.405a.568.568,0,0,0,.314.508l1.957.978v3.333A7.951,7.951,0,0,1,4.471,7.6H6.544a.568.568,0,0,0,.4-.166l2.27-2.27a.568.568,0,0,0,.166-.4V3.393a7.968,7.968,0,0,1,5.752.472c-.074.062-.145.127-.214.2a3.406,3.406,0,0,0,2.406,5.814q.084,0,.169,0a13.329,13.329,0,0,1-.149,6.6.566.566,0,0,0-.015.093A7.921,7.921,0,0,1,11.652,18.955Z" transform="translate(-2.571 -1.928)" fill="#2b3653"/>
</svg>
