<svg xmlns="http://www.w3.org/2000/svg" width="18.163" height="20.232" viewBox="0 0 18.163 20.232">
  <g id="Group_217" data-name="Group 217" transform="translate(-1160 -47)">
    <path id="Icon_awesome-bell" data-name="Icon awesome-bell" d="M8.129,20.232A2.432,2.432,0,0,0,10.451,17.7H5.808A2.432,2.432,0,0,0,8.129,20.232Zm7.817-5.916c-.7-.82-2.013-2.054-2.013-6.1A6.127,6.127,0,0,0,9.29,2.088V1.265A1.216,1.216,0,0,0,8.129,0,1.216,1.216,0,0,0,6.969,1.265v.824A6.127,6.127,0,0,0,2.326,8.219c0,4.042-1.312,5.277-2.013,6.1A1.3,1.3,0,0,0,0,15.174a1.219,1.219,0,0,0,1.165,1.265H15.094a1.218,1.218,0,0,0,1.165-1.265A1.3,1.3,0,0,0,15.946,14.316Z" transform="translate(1160 47)" fill="#2b3653"/>
    <circle id="Ellipse_2" data-name="Ellipse 2" cx="1.974" cy="1.974" r="1.974" transform="translate(1174.214 47.79)" fill="#b74c50"/>
  </g>
</svg>
