<svg id="Group_8" data-name="Group 8" xmlns="http://www.w3.org/2000/svg" xmlns:xlink="http://www.w3.org/1999/xlink" width="21.598" height="21.103" viewBox="0 0 21.598 21.103">
  <defs>
    <clipPath id="clip-path">
      <rect id="Rectangle_6" data-name="Rectangle 6" width="21.598" height="21.103" fill="none"/>
    </clipPath>
  </defs>
  <g id="Group_7" data-name="Group 7" clip-path="url(#clip-path)">
    <path id="Path_22" data-name="Path 22" d="M18.4,56.112H17.185a.674.674,0,1,1,0-1.348H18.4a1.849,1.849,0,0,0,1.847-1.847V47.876A1.849,1.849,0,0,0,18.4,46.029H3.195a1.849,1.849,0,0,0-1.847,1.847v5.041a1.849,1.849,0,0,0,1.847,1.847H4.413a.674.674,0,1,1,0,1.348H3.195A3.2,3.2,0,0,1,0,52.917V47.876a3.2,3.2,0,0,1,3.195-3.195H18.4A3.2,3.2,0,0,1,21.6,47.876v5.041A3.2,3.2,0,0,1,18.4,56.112" transform="translate(0 -42.172)" fill="#fff"/>
    <path id="Path_23" data-name="Path 23" d="M64.083,165.713H49.295a.674.674,0,1,1,0-1.348H64.083a.674.674,0,1,1,0,1.348" transform="translate(-45.89 -155.134)" fill="#fff"/>
    <path id="Path_24" data-name="Path 24" d="M51.312,93.9H49.295a.674.674,0,1,1,0-1.348h2.017a.674.674,0,0,1,0,1.348" transform="translate(-45.89 -87.357)" fill="#fff"/>
    <path id="Path_25" data-name="Path 25" d="M134.322,187.478a.674.674,0,0,1-.007-1.348l7.378-.076a.727.727,0,0,0,.563-.343,1.921,1.921,0,0,0,.307-1.128s0,0,0-.007l0-7.6a.674.674,0,0,1,.674-.674h0a.674.674,0,0,1,.674.674l0,7.6a3.267,3.267,0,0,1-.558,1.921,2.031,2.031,0,0,1-1.646.908l-7.378.076h-.007" transform="translate(-126.142 -166.396)" fill="#fff"/>
    <path id="Path_26" data-name="Path 26" d="M133.568,189.466a.618.618,0,0,1-.618-.611l-.073-7.052a.618.618,0,0,1,.611-.624h.007a.618.618,0,0,1,.618.611l.073,7.052a.618.618,0,0,1-.611.624h-.007" transform="translate(-125.414 -171.003)" fill="#fff"/>
    <path id="Path_27" data-name="Path 27" d="M68.524,191.15a2.6,2.6,0,0,1-1.54-.473,1.773,1.773,0,0,1-.751-1.405l-.087-8.426a.674.674,0,1,1,1.348-.014l.087,8.426a.442.442,0,0,0,.2.335,1.264,1.264,0,0,0,.757.209l2.063-.021a.674.674,0,0,1,.014,1.348l-2.063.021h-.031" transform="translate(-62.431 -170.046)" fill="#fff"/>
    <path id="Path_28" data-name="Path 28" d="M64.649,2.49a.674.674,0,0,1-.67-.606,1.589,1.589,0,0,1,.333-1.3A2.01,2.01,0,0,1,65.932.136c.1,0,.206,0,.307,0h.006l9.384-.02h0a.674.674,0,0,1,0,1.348l-9.381.02c-.117,0-.229,0-.337,0a3.465,3.465,0,0,0-.6.023,1.04,1.04,0,0,0,0,.242.674.674,0,0,1-.6.738c-.023,0-.046,0-.069,0" transform="translate(-60.372 -0.111)" fill="#fff"/>
    <path id="Path_29" data-name="Path 29" d="M107.8,2.306a.674.674,0,0,1-.671-.747.976.976,0,0,0,.006-.164,3.884,3.884,0,0,0-.605-.022c-.109,0-.222,0-.339,0l-9.4-.026a.674.674,0,0,1,0-1.348h0l9.41.026c.11,0,.214,0,.314,0a2.042,2.042,0,0,1,1.639.451,1.51,1.51,0,0,1,.316,1.228.674.674,0,0,1-.669.6" transform="translate(-90.719 -0.001)" fill="#fff"/>
    <path id="Path_30" data-name="Path 30" d="M180.213,261.662a1.24,1.24,0,1,1-2.478.026,1.239,1.239,0,0,1,2.478-.026m-1.716.018a.478.478,0,1,0,.954-.01.477.477,0,1,0-.954.01" transform="translate(-167.753 -245.809)" fill="#fff"/>
    <path id="Path_31" data-name="Path 31" d="M226.028,244.9l.036,3.461a.381.381,0,0,1-.377.385,2.112,2.112,0,0,1-.044-4.223.381.381,0,0,1,.385.377m-.731,3.029-.027-2.584a1.337,1.337,0,0,0-.941,1.289,1.383,1.383,0,0,0,.967,1.295" transform="translate(-211.011 -230.792)" fill="#fff"/>
  </g>
</svg>
