<svg id="Group_18" data-name="Group 18" xmlns="http://www.w3.org/2000/svg" xmlns:xlink="http://www.w3.org/1999/xlink" width="23" height="23" viewBox="0 0 23 23">
  <defs>
    <clipPath id="clip-path">
      <rect id="Rectangle_11" data-name="Rectangle 11" width="23" height="23" fill="none"/>
    </clipPath>
  </defs>
  <g id="Group_16" data-name="Group 16" clip-path="url(#clip-path)">
    <path id="Path_53" data-name="Path 53" d="M6.2,17.138a3.359,3.359,0,0,1,.813.1,3.162,3.162,0,0,1,1.921,1.377,2.7,2.7,0,0,1,.423,1.421,1.344,1.344,0,0,0,1.388,1.3h1.494a1.345,1.345,0,0,0,1.388-1.284,2.818,2.818,0,0,1,.927-2.089,3.241,3.241,0,0,1,2.254-.862,3.434,3.434,0,0,1,1.529.393,1.455,1.455,0,0,0,1.9-.467l.792-1.229a1.206,1.206,0,0,0,.134-.966,1.3,1.3,0,0,0-.642-.779,2.965,2.965,0,0,1-1.481-1.8,2.786,2.786,0,0,1,.323-2.241,3.049,3.049,0,0,1,1.158-1.076,1.246,1.246,0,0,0,.5-1.752.6.6,0,0,1-.042-.077l-.7-1.128a1.447,1.447,0,0,0-1.892-.476A3.323,3.323,0,0,1,16,5.814a3.121,3.121,0,0,1-1.934-1.362,2.689,2.689,0,0,1-.428-1.427,1.274,1.274,0,0,0-.392-.97,1.446,1.446,0,0,0-1-.39H10.751a1.429,1.429,0,0,0-.977.376,1.225,1.225,0,0,0-.4.91A3.091,3.091,0,0,1,6.2,5.881a3.252,3.252,0,0,1-1.549-.4,1.446,1.446,0,0,0-1.88.484L1.962,7.2a1.241,1.241,0,0,0,.515,1.743,2.857,2.857,0,0,1,0,5.119,1.235,1.235,0,0,0-.5,1.748l.753,1.208a1.39,1.39,0,0,0,.842.629,1.508,1.508,0,0,0,1.059-.114A3.312,3.312,0,0,1,6.2,17.138M12.245,23H10.751a3.075,3.075,0,0,1-3.177-2.956,1.133,1.133,0,0,0-.18-.591,1.371,1.371,0,0,0-.84-.608,1.469,1.469,0,0,0-1.04.13,3.441,3.441,0,0,1-2.437.272,3.168,3.168,0,0,1-1.908-1.41l-.745-1.2a2.841,2.841,0,0,1,1.157-4.024,1.248,1.248,0,0,0,0-2.237A2.852,2.852,0,0,1,.423,6.349l.809-1.235a3.306,3.306,0,0,1,4.32-1.072,1.379,1.379,0,0,0,.658.174A1.347,1.347,0,0,0,7.586,2.944,2.82,2.82,0,0,1,8.506.867,3.272,3.272,0,0,1,10.751,0h1.494a3.325,3.325,0,0,1,2.279.894,2.868,2.868,0,0,1,.9,2.147,1.126,1.126,0,0,0,.18.566,1.372,1.372,0,0,0,.844.6,1.472,1.472,0,0,0,1.044-.137A3.318,3.318,0,0,1,21.83,5.151l.743,1.2a.92.92,0,0,1,.05.1,2.859,2.859,0,0,1-1.2,3.935,1.32,1.32,0,0,0-.506.467,1.225,1.225,0,0,0-.143.98,1.284,1.284,0,0,0,.644.78,3,3,0,0,1,1.48,1.794,2.789,2.789,0,0,1-.323,2.243l-.792,1.228a3.312,3.312,0,0,1-4.326,1.064,1.5,1.5,0,0,0-.666-.172h-.007a1.433,1.433,0,0,0-.957.375,1.226,1.226,0,0,0-.4.911A3.081,3.081,0,0,1,12.245,23" transform="translate(0 0)" fill="#fff" fill-rule="evenodd"/>
    <path id="Path_54" data-name="Path 54" d="M151.367,165.826a2.1,2.1,0,1,0,2.249,2.095,2.179,2.179,0,0,0-2.249-2.095m0,5.852a3.768,3.768,0,1,1,4.038-3.757,3.91,3.91,0,0,1-4.038,3.757" transform="translate(-139.864 -156.42)" fill="#fff" fill-rule="evenodd"/>
  </g>
</svg>
