<svg xmlns="http://www.w3.org/2000/svg" width="27.538" height="27.538" viewBox="0 0 27.538 27.538">
  <path id="Icon_awesome-user-circle" data-name="Icon awesome-user-circle" d="M13.769.563A13.769,13.769,0,1,0,27.538,14.332,13.767,13.767,0,0,0,13.769.563Zm0,5.33a4.886,4.886,0,1,1-4.886,4.886A4.886,4.886,0,0,1,13.769,5.892Zm0,19.1A10.639,10.639,0,0,1,5.635,21.2a6.19,6.19,0,0,1,5.469-3.32,1.358,1.358,0,0,1,.394.061,7.351,7.351,0,0,0,2.271.383,7.323,7.323,0,0,0,2.271-.383,1.358,1.358,0,0,1,.394-.061A6.19,6.19,0,0,1,21.9,21.2,10.639,10.639,0,0,1,13.769,24.991Z" transform="translate(0 -0.563)" fill="#b9c4e2"/>
</svg>
